<svg version="1.1" id="Layer_1" xmlns="http://www.w3.org/2000/svg" xmlns:xlink="http://www.w3.org/1999/xlink" x="0px" y="0px"
	 width="100%" viewBox="0 0 233 162" enable-background="new 0 0 233 162" xml:space="preserve">
<path fill="#F0F5FF" opacity="1.000000" stroke="none" 
	d="
M234.000000,105.000000 
	C234.000000,124.275620 234.000000,143.551239 234.000000,163.000000 
	C204.645996,163.000000 175.291656,163.000000 145.477112,162.633011 
	C145.550720,160.670944 146.936890,158.013962 146.482895,157.649551 
	C142.992706,154.848083 144.125580,151.616272 145.368118,148.269012 
	C147.749481,148.793152 149.769226,149.358383 152.030945,149.866791 
	C152.588150,149.668716 152.825394,149.444824 153.272308,149.079529 
	C154.137619,148.925964 154.715286,148.831146 155.543762,148.754883 
	C155.935562,148.690201 156.076538,148.606964 156.217514,148.523727 
	C155.966858,148.340927 155.716187,148.158112 155.429657,147.632019 
	C155.542572,146.856857 155.691330,146.424988 156.203766,145.964081 
	C157.714340,144.693375 158.861252,143.451675 160.360809,142.133636 
	C162.796936,142.007111 164.880432,141.956894 167.158081,142.169800 
	C169.751923,142.432892 172.151596,142.432892 174.703171,142.432892 
	C174.448822,141.208893 174.226379,140.138412 174.371338,138.888123 
	C180.626801,138.135559 186.504105,137.382202 192.405319,137.030640 
	C202.262436,136.443436 212.134827,136.113083 222.043213,135.672714 
	C222.298309,133.728043 222.489609,132.269608 222.772064,130.654709 
	C222.894226,130.342072 222.980545,130.171692 222.944870,130.032623 
	C222.867661,129.731720 222.727951,129.446869 222.478058,128.695770 
	C222.265503,120.159195 222.188705,112.082314 222.454056,104.073059 
	C226.176651,109.044838 230.191650,105.675240 234.000000,105.000000 
M150.712204,154.549149 
	C150.988785,154.285553 151.265381,154.021957 151.541962,153.758362 
	C151.432755,153.643829 151.323563,153.529282 151.214355,153.414734 
	C150.937714,153.678665 150.661072,153.942596 150.712204,154.549149 
z"/>
<path fill="#E2E9F9" opacity="1.000000" stroke="none" 
	d="
M100.000000,163.000000 
	C97.958336,163.000000 95.916664,163.000000 93.431213,162.624542 
	C91.959846,156.085144 85.921791,155.198425 81.948479,152.786179 
	C71.059273,146.175125 58.898304,146.684753 46.530823,147.863480 
	C37.935265,148.682693 31.330658,152.511368 25.089542,157.648575 
	C23.401661,159.037918 22.345903,161.195206 21.000000,163.000000 
	C14.387828,163.000000 7.775655,163.000000 1.000000,163.000000 
	C1.000000,151.979538 1.000000,140.958435 1.290842,129.679688 
	C2.381539,129.835739 3.181395,130.249405 4.076696,131.063904 
	C4.267438,133.441559 4.131905,135.464676 4.516890,137.383377 
	C4.990196,139.742233 5.769368,142.069046 6.717998,144.280304 
	C6.926737,144.766876 8.435682,144.920578 9.280023,144.792694 
	C9.593339,144.745255 9.938802,143.435791 9.894062,142.725525 
	C9.421550,135.224152 8.873108,127.727547 8.595517,120.207489 
	C9.178122,120.164368 9.510815,120.143387 9.896294,120.525116 
	C10.950122,124.579147 11.426347,128.498703 13.113427,131.799362 
	C14.537682,134.585831 17.404440,138.661560 19.565693,138.620712 
	C23.993965,138.536987 23.348286,133.474503 23.586058,130.293457 
	C24.089794,123.554199 23.946850,116.766594 24.416979,110.065002 
	C26.049614,111.482597 27.334366,112.834007 28.587948,114.643936 
	C28.333551,120.057854 27.439081,125.111534 28.144705,129.930939 
	C28.552803,132.718246 31.085804,136.565765 33.487198,137.323914 
	C36.162613,138.168594 40.637760,136.971863 42.760448,134.986313 
	C45.442024,132.477982 46.538612,128.275192 48.703655,124.799400 
	C51.739285,124.442421 54.390152,124.089363 57.144836,124.172928 
	C57.781208,130.733765 58.313770,136.857986 58.940376,144.063690 
	C61.032875,141.826859 61.973736,140.821106 62.940182,140.234344 
	C63.836460,141.763245 64.595627,143.720795 65.595047,143.852280 
	C75.892326,145.207123 84.636696,150.322266 93.306450,155.376801 
	C96.077293,156.992218 97.798523,160.407990 100.000000,163.000000 
z"/>
<path fill="#DCE9FD" opacity="1.000000" stroke="none" 
	d="
M132.000000,1.000000 
	C157.020889,1.000000 182.041794,1.000000 207.530670,1.382360 
	C206.794830,3.358541 205.591003,4.952363 204.387177,6.546187 
	C200.808105,3.552397 199.709930,7.450943 197.663940,8.901897 
	C194.675278,11.021355 191.761124,13.405742 188.457291,14.869184 
	C185.919647,15.993247 185.425842,16.571730 187.261505,18.560139 
	C183.247009,19.696060 179.583298,20.633980 175.489136,21.682095 
	C176.806564,27.451384 178.043503,32.868191 179.462067,39.080372 
	C175.778839,38.673542 172.860794,38.351231 169.959717,37.599937 
	C170.747955,31.109440 171.519257,25.047928 172.337723,18.615780 
	C154.218887,16.660854 136.611008,14.761059 119.009033,12.497309 
	C121.343292,8.422235 123.671638,4.711116 126.000000,0.999999 
	C126.750000,1.000000 127.500000,1.000000 128.625000,1.408411 
	C129.147522,3.416073 129.295044,5.015324 129.442566,6.614574 
	C130.028702,6.631615 130.614822,6.648656 131.200943,6.665697 
	C131.467300,4.777131 131.733643,2.888565 132.000000,1.000000 
z"/>
<path fill="#D3E5FE" opacity="1.000000" stroke="none" 
	d="
M41.000000,1.000000 
	C53.687561,1.000000 66.375122,1.000000 79.491684,1.360061 
	C78.802620,6.720185 75.130188,8.273455 70.574509,9.071589 
	C67.600784,9.592571 64.321541,10.209082 61.936775,11.870360 
	C56.936199,15.353863 52.435680,19.555187 47.514591,23.640469 
	C47.595505,24.023659 47.797539,24.980469 47.617592,26.075260 
	C41.588501,27.142862 35.941391,28.072477 30.240742,29.010906 
	C30.592556,31.382795 30.857643,33.169975 30.700390,35.027374 
	C25.514187,35.755970 20.750322,36.414352 15.898060,37.084949 
	C15.898060,39.103516 15.898060,40.553154 15.567451,42.063156 
	C13.183477,43.578407 11.130111,45.033295 8.086917,47.189510 
	C8.069130,47.301891 7.818611,48.884674 7.483802,51.000000 
	C5.206467,51.000000 3.103234,51.000000 1.000000,51.000000 
	C1.000000,44.645603 1.000000,38.291203 1.436387,31.468407 
	C6.687583,30.623888 12.114600,31.692118 14.522758,25.638124 
	C22.255440,24.658270 23.740803,18.143232 26.414436,12.529509 
	C27.009798,11.279453 29.038881,10.765028 30.289925,9.764458 
	C33.892250,6.883359 37.434284,3.926872 41.000000,1.000000 
z"/>
<path fill="#DCE7FA" opacity="1.000000" stroke="none" 
	d="
M3.981249,130.663071 
	C3.181395,130.249405 2.381539,129.835739 1.290842,129.211029 
	C1.000000,115.979103 1.000000,102.958214 1.429025,89.468872 
	C5.699993,89.147484 9.509288,89.344589 11.251804,84.711296 
	C11.531336,83.968033 12.822566,83.664116 13.471637,82.989281 
	C15.049479,81.348846 16.494158,79.580940 18.055092,77.923340 
	C18.758093,77.176796 19.610550,76.570999 20.566135,76.241852 
	C21.146666,79.461472 21.556259,82.340584 21.958937,85.171104 
	C28.554939,84.773628 34.588203,84.410065 40.663612,84.476486 
	C41.796608,90.310478 42.887463,95.714493 43.942234,101.478500 
	C43.948082,102.559418 43.990013,103.280319 43.692146,103.900055 
	C41.745480,103.470467 40.117184,102.781662 38.535439,102.875725 
	C31.517292,103.293045 29.933416,108.660248 28.619118,114.185417 
	C27.334366,112.834007 26.049614,111.482597 24.281837,109.719833 
	C23.042032,108.076347 22.285250,106.844215 21.528465,105.612091 
	C20.924812,106.997978 19.832249,108.372353 19.799271,109.771690 
	C19.624990,117.166626 19.717505,124.567848 19.717505,131.966888 
	C19.084221,132.057251 18.450939,132.147629 17.817656,132.237991 
	C16.852409,129.176422 15.677005,126.162476 14.969840,123.042412 
	C13.831930,118.021873 13.271851,112.857094 11.905640,107.908401 
	C11.391117,106.044693 9.311492,104.613068 7.945356,102.984467 
	C7.009391,104.743690 5.415400,106.444366 5.252722,108.272400 
	C4.590425,115.714737 4.366652,123.196098 3.981249,130.663071 
z"/>
<path fill="#E2EBFE" opacity="1.000000" stroke="none" 
	d="
M187.612274,18.362137 
	C185.425842,16.571730 185.919647,15.993247 188.457291,14.869184 
	C191.761124,13.405742 194.675278,11.021355 197.663940,8.901897 
	C199.709930,7.450943 200.808105,3.552397 204.387177,6.546187 
	C205.591003,4.952363 206.794830,3.358541 207.999329,1.382360 
	C216.581223,1.000000 225.162430,1.000000 234.000000,1.000000 
	C234.000000,7.018007 234.000000,13.039628 233.608215,19.580276 
	C230.461899,20.941549 227.215363,21.127735 225.048004,22.753016 
	C219.287811,27.072508 214.493759,32.721867 206.553284,33.456718 
	C204.987274,33.601643 203.536148,35.695412 202.169235,37.030827 
	C201.283279,37.896358 200.646423,39.016853 199.650726,39.752617 
	C197.611603,33.464310 195.931747,27.409136 193.946533,21.455790 
	C193.469467,20.025145 191.978714,18.932531 190.844421,17.571377 
	C190.393875,17.354916 190.154694,17.482607 189.726471,17.954151 
	C188.827942,18.165331 188.220108,18.263735 187.612274,18.362137 
z"/>
<path fill="#E6EEFE" opacity="1.000000" stroke="none" 
	d="
M199.897949,40.023113 
	C200.646423,39.016853 201.283279,37.896358 202.169235,37.030827 
	C203.536148,35.695412 204.987274,33.601643 206.553284,33.456718 
	C214.493759,32.721867 219.287811,27.072508 225.048004,22.753016 
	C227.215363,21.127735 230.461899,20.941549 233.608215,20.049652 
	C234.000000,33.354229 234.000000,46.708454 233.561493,60.531349 
	C228.912048,61.303482 224.585892,62.325157 220.528030,61.674244 
	C217.496201,61.187920 216.082474,61.933567 214.449524,63.836174 
	C213.372360,61.441433 212.383438,59.343163 211.718506,57.146809 
	C210.732330,53.889351 209.408600,51.448875 205.277084,52.031845 
	C204.473343,52.145256 202.941345,50.899361 202.624878,49.978252 
	C201.509216,46.730888 200.776138,43.352074 199.897949,40.023113 
z"/>
<path fill="#D7E7FE" opacity="1.000000" stroke="none" 
	d="
M47.999573,25.937277 
	C47.797539,24.980469 47.595505,24.023659 47.514591,23.640469 
	C52.435680,19.555187 56.936199,15.353863 61.936775,11.870360 
	C64.321541,10.209082 67.600784,9.592571 70.574509,9.071589 
	C75.130188,8.273455 78.802620,6.720185 79.960342,1.360061 
	C95.020897,1.000000 110.041786,1.000000 125.531342,0.999999 
	C123.671638,4.711116 121.343292,8.422235 118.671249,12.546587 
	C117.883980,12.870538 117.440407,12.781257 116.979675,12.337645 
	C116.370750,11.348779 115.535164,10.082806 115.233414,10.199327 
	C114.364273,10.534941 113.710632,11.428624 112.524490,12.154637 
	C107.556114,11.841290 103.035591,11.476387 98.719170,11.127960 
	C98.131310,13.793924 97.654205,15.957623 96.940903,18.449806 
	C80.469658,21.164618 64.234612,23.550947 47.999573,25.937277 
z"/>
<path fill="#EAF1FD" opacity="1.000000" stroke="none" 
	d="
M145.006516,148.310120 
	C144.125580,151.616272 142.992706,154.848083 146.482895,157.649551 
	C146.936890,158.013962 145.550720,160.670944 145.008453,162.633011 
	C131.979111,163.000000 118.958214,163.000000 105.430069,162.644608 
	C101.551758,158.350357 98.063942,154.503616 94.854660,150.437103 
	C93.011948,148.102188 91.620934,145.410797 90.475647,142.832825 
	C108.951988,144.627228 126.979248,146.468674 145.006516,148.310120 
z"/>
<path fill="#D0E4FE" opacity="1.000000" stroke="none" 
	d="
M40.531342,1.000000 
	C37.434284,3.926872 33.892250,6.883359 30.289925,9.764458 
	C29.038881,10.765028 27.009798,11.279453 26.414436,12.529509 
	C23.740803,18.143232 22.255440,24.658270 14.522758,25.638124 
	C12.114600,31.692118 6.687583,30.623888 1.436387,31.000004 
	C1.000000,21.062923 1.000000,11.125847 1.000000,1.000000 
	C14.020287,1.000000 27.041485,1.000000 40.531342,1.000000 
z"/>
<path fill="#E8EFFD" opacity="1.000000" stroke="none" 
	d="
M214.682693,64.088760 
	C216.082474,61.933567 217.496201,61.187920 220.528030,61.674244 
	C224.585892,62.325157 228.912048,61.303482 233.561493,61.000008 
	C234.000000,75.354225 234.000000,89.708458 234.000000,104.531342 
	C230.191650,105.675240 226.176651,109.044838 222.371063,103.612190 
	C221.945908,98.503166 221.945908,93.922646 221.945908,88.877075 
	C217.834274,88.877075 214.564590,88.877075 211.451508,88.607719 
	C218.358093,83.966705 220.079315,79.925522 218.286575,72.855011 
	C218.233322,72.505188 218.044846,72.276115 217.604950,71.802910 
	C216.463272,69.068771 215.572983,66.578766 214.682693,64.088760 
M220.515762,74.422279 
	C220.515762,74.422279 220.572876,74.522110 220.515762,74.422279 
z"/>
<path fill="#D7E8FE" opacity="1.000000" stroke="none" 
	d="
M20.395195,75.901344 
	C19.610550,76.570999 18.758093,77.176796 18.055092,77.923340 
	C16.494158,79.580940 15.049479,81.348846 13.471637,82.989281 
	C12.822566,83.664116 11.531336,83.968033 11.251804,84.711296 
	C9.509288,89.344589 5.699993,89.147484 1.429025,89.000214 
	C1.000000,76.645775 1.000000,64.291542 1.000000,51.468658 
	C3.103234,51.000000 5.206467,51.000000 7.483802,51.000000 
	C7.818611,48.884674 8.069130,47.301891 8.086917,47.189510 
	C11.130111,45.033295 13.183477,43.578407 15.675639,42.473568 
	C17.541355,53.849525 18.968275,64.875435 20.395195,75.901344 
z"/>
<path fill="#E3EDFC" opacity="1.000000" stroke="none" 
	d="
M90.026581,142.879898 
	C91.620934,145.410797 93.011948,148.102188 94.854660,150.437103 
	C98.063942,154.503616 101.551758,158.350357 104.961411,162.644608 
	C103.611107,163.000000 102.222221,163.000000 100.416664,163.000000 
	C97.798523,160.407990 96.077293,156.992218 93.306450,155.376801 
	C84.636696,150.322266 75.892326,145.207123 65.595047,143.852280 
	C64.595627,143.720795 63.836460,141.763245 62.910465,139.824615 
	C62.665874,133.593826 62.476585,128.191742 62.669220,122.769310 
	C70.054832,121.737419 77.058510,120.725891 84.107277,120.166397 
	C83.325020,127.531403 82.497673,134.444366 81.666946,141.385605 
	C84.935844,141.969925 87.481209,142.424911 90.026581,142.879898 
z"/>
<path fill="#E0E9F7" opacity="1.000000" stroke="none" 
	d="
M21.460636,163.000000 
	C22.345903,161.195206 23.401661,159.037918 25.089542,157.648575 
	C31.330658,152.511368 37.935265,148.682693 46.530823,147.863480 
	C58.898304,146.684753 71.059273,146.175125 81.948479,152.786179 
	C85.921791,155.198425 91.959846,156.085144 92.993713,162.624542 
	C91.285645,163.000000 89.571281,163.000000 87.374962,162.660400 
	C86.739449,162.033066 86.653969,161.664871 86.422600,161.469162 
	C73.257988,150.333221 49.158665,150.524216 34.319096,160.489426 
	C33.628742,160.953033 33.428501,162.146469 33.000000,163.000000 
	C29.307091,163.000000 25.614182,163.000000 21.460636,163.000000 
z"/>
<path fill="#D9E2EE" opacity="1.000000" stroke="none" 
	d="
M33.467941,163.000000 
	C33.428501,162.146469 33.628742,160.953033 34.319096,160.489426 
	C49.158665,150.524216 73.257988,150.333221 86.422600,161.469162 
	C86.653969,161.664871 86.739449,162.033066 86.946503,162.660400 
	C81.645073,163.000000 76.290138,163.000000 70.383644,162.825256 
	C69.554718,162.767014 69.277359,162.883499 69.000000,163.000000 
	C68.555557,163.000000 68.111107,163.000000 67.250931,162.605804 
	C61.423553,159.798080 56.177731,160.715256 51.000000,163.000000 
	C45.311958,163.000000 39.623920,163.000000 33.467941,163.000000 
z"/>
<path fill="#FAFBFD" opacity="1.000000" stroke="none" 
	d="
M51.466862,163.000000 
	C56.177731,160.715256 61.423553,159.798080 66.917603,162.605804 
	C61.977909,163.000000 56.955814,163.000000 51.466862,163.000000 
z"/>
<path fill="#D7E7FE" opacity="1.000000" stroke="none" 
	d="
M131.625000,1.000000 
	C131.733643,2.888565 131.467300,4.777131 131.200943,6.665697 
	C130.614822,6.648656 130.028702,6.631615 129.442566,6.614574 
	C129.295044,5.015324 129.147522,3.416073 129.000000,1.408411 
	C129.750000,1.000000 130.500000,1.000000 131.625000,1.000000 
z"/>
<path fill="#FAFBFD" opacity="1.000000" stroke="none" 
	d="
M69.250000,163.000000 
	C69.277359,162.883499 69.554718,162.767014 69.916039,162.825256 
	C70.000000,163.000000 69.500000,163.000000 69.250000,163.000000 
z"/>
<path fill="#3161AA" opacity="1.000000" stroke="none" 
	d="
M211.294891,88.877075 
	C214.564590,88.877075 217.834274,88.877075 221.945908,88.877075 
	C221.945908,93.922646 221.945908,98.503166 222.028900,103.544556 
	C222.188705,112.082314 222.265503,120.159195 222.366364,128.968384 
	C222.487259,130.070847 222.584091,130.441010 222.680923,130.811172 
	C222.489609,132.269608 222.298309,133.728043 222.043213,135.672714 
	C212.134827,136.113083 202.262436,136.443436 192.405319,137.030640 
	C186.504105,137.382202 180.626801,138.135559 174.009552,138.894104 
	C171.174866,140.022171 169.069397,140.964432 166.963913,141.906693 
	C164.880432,141.956894 162.796936,142.007111 159.968002,142.076523 
	C158.158997,142.157303 157.095428,142.218903 155.599304,142.207916 
	C153.838333,142.056351 152.503204,142.037170 151.182571,141.888824 
	C141.486877,140.799805 133.830765,134.584534 133.254593,126.080261 
	C132.924484,121.207664 130.544357,120.335869 126.812218,120.159103 
	C124.386665,120.044228 121.951256,120.137466 119.365990,120.137466 
	C118.835762,124.194397 118.675102,127.706047 117.808350,131.033783 
	C117.411354,132.557922 115.622559,134.859039 114.470009,134.856064 
	C108.432724,134.840424 102.397064,134.199295 96.232811,133.766571 
	C97.939346,117.729805 99.568634,102.419022 101.614243,87.076172 
	C103.726364,87.000229 105.422173,86.956345 107.544640,86.935394 
	C115.887459,87.694122 123.813377,88.340958 131.715134,89.207924 
	C135.040314,89.572754 138.829163,89.654533 138.919846,93.480743 
	C147.078079,93.480743 154.847778,93.480743 162.979218,93.534958 
	C165.779694,93.298637 169.822571,93.755730 170.369003,92.583282 
	C172.338760,88.356865 175.627853,90.107872 178.401093,89.896652 
	C181.525299,89.658707 184.684952,89.886345 188.307556,89.939987 
	C196.288925,89.604691 203.791901,89.240883 211.294891,88.877075 
M147.170029,106.328384 
	C147.102722,105.875198 147.035431,105.422020 147.100021,104.152374 
	C147.425827,101.359772 146.646286,98.645775 143.511124,99.348145 
	C141.676163,99.759232 136.841949,97.569336 137.829712,103.844757 
	C137.925201,105.227882 138.020691,106.611015 137.988403,108.654579 
	C138.035065,109.098717 138.081726,109.542862 138.001617,110.843056 
	C138.715576,113.908653 139.429520,116.974251 139.926743,120.793060 
	C140.163910,123.572777 140.401062,126.352501 140.846451,129.812302 
	C147.267715,138.088791 160.463989,138.653534 168.374130,130.480652 
	C169.194794,127.340477 170.015457,124.200302 170.964279,120.291000 
	C170.896011,119.519653 170.827728,118.748299 170.871109,117.150284 
	C170.755142,115.771301 170.639191,114.392319 170.679092,112.281494 
	C170.492233,110.834473 170.305389,109.387451 170.239319,107.033348 
	C170.112869,104.314117 169.986404,101.594887 169.848221,98.623360 
	C166.223480,98.808495 163.320190,98.956787 159.978531,99.127464 
	C160.323303,102.128151 160.603256,104.564690 160.752487,107.831963 
	C160.858765,109.225075 160.965042,110.618195 160.957825,112.837463 
	C161.030685,114.223312 161.103561,115.609169 161.057465,117.651237 
	C161.116882,118.088791 161.176300,118.526344 161.123611,119.673668 
	C161.183044,120.146507 161.242477,120.619347 161.135605,121.843742 
	C160.749100,123.563164 160.362595,125.282593 159.327347,127.348869 
	C153.909592,130.277435 151.521210,129.671219 148.277969,123.897148 
	C147.196304,122.638245 146.114655,121.379349 145.612823,119.825951 
	C146.077194,119.149315 146.541580,118.472679 147.473450,117.812271 
	C147.821457,117.626755 147.902588,117.360031 147.842239,116.246536 
	C147.765244,115.478561 147.688232,114.710594 147.773895,113.270317 
	C147.595291,112.157921 147.416687,111.045525 147.332550,109.196495 
	C147.228378,108.465752 147.124191,107.735016 147.170029,106.328384 
M212.227325,101.253357 
	C212.134430,100.498878 212.041534,99.744392 212.088943,98.110870 
	C210.981415,90.684235 205.981018,97.000832 202.971283,94.441956 
	C203.085999,96.723206 203.142899,97.854622 203.088242,99.739639 
	C203.131927,100.498558 203.175613,101.257477 203.055771,102.697319 
	C203.336670,103.786583 203.617554,104.875847 203.274826,106.349831 
	C203.543716,108.583748 203.812607,110.817673 203.954834,113.830666 
	C204.027710,114.878609 204.100571,115.926544 204.020844,117.473640 
	C203.255798,116.960037 202.490738,116.446434 201.556137,115.309135 
	C199.324539,111.883247 197.092926,108.457367 194.863632,104.366806 
	C194.149261,103.251854 193.434891,102.136902 192.587585,100.438362 
	C192.011978,99.626984 191.436371,98.815598 190.732574,97.340439 
	C189.033783,95.091591 179.776855,94.881554 178.319824,97.136208 
	C178.049332,97.554794 178.422180,98.389130 178.358414,99.693192 
	C178.548294,100.794167 178.738190,101.895134 178.783951,103.746834 
	C178.876099,104.500664 178.968246,105.254494 178.924683,106.752205 
	C178.993301,107.502563 179.061935,108.252930 179.019608,109.875183 
	C179.145981,111.913368 179.272339,113.951546 179.276031,116.824158 
	C179.550720,120.219101 179.825409,123.614044 179.980133,127.882172 
	C180.119507,129.270081 180.258865,130.658005 180.370621,131.770950 
	C183.601929,131.770950 186.212585,131.770950 189.173340,131.770950 
	C189.052917,129.613358 188.952637,127.816490 188.978455,125.127388 
	C188.690277,121.751434 188.402115,118.375473 188.225281,114.119110 
	C188.223404,111.777908 188.221512,109.436707 188.706863,107.518501 
	C190.703354,110.672539 192.699829,113.826576 194.930313,117.659653 
	C196.897964,120.792870 198.865601,123.926094 200.995331,127.826859 
	C204.104889,134.415192 209.465958,129.622604 213.959824,131.190842 
	C213.828583,129.214508 213.754089,128.092728 213.785431,126.131607 
	C213.503464,123.063484 213.221481,119.995354 213.068359,116.155304 
	C212.990601,115.112000 212.912857,114.068695 212.929779,112.230728 
	C212.561554,110.154518 212.193314,108.078308 211.968536,105.203957 
	C212.008194,104.137581 212.047867,103.071213 212.227325,101.253357 
M102.147751,124.724174 
	C102.147751,126.098984 102.147751,127.473785 102.147751,129.938919 
	C105.410324,126.936554 112.190247,134.522385 111.999290,124.204018 
	C112.021461,123.144882 112.043625,122.085747 112.445732,120.385338 
	C112.572685,118.617538 112.699638,116.849731 113.285843,114.386513 
	C117.868546,114.540092 122.451248,114.693672 127.839394,114.849884 
	C128.325333,112.683800 128.811264,110.517723 129.355606,108.091362 
	C124.668419,107.670731 120.875221,107.549805 117.183006,106.875725 
	C115.949577,106.650536 114.974327,105.011230 114.069778,103.260513 
	C114.178185,102.226387 114.286591,101.192261 115.248825,100.037437 
	C119.380356,100.330200 123.518181,100.555733 127.641037,100.941246 
	C130.066483,101.168037 131.612457,100.715401 131.387360,97.243256 
	C130.771103,96.083916 130.272675,94.006508 129.520035,93.909920 
	C123.282982,93.109520 116.998749,92.360313 110.729218,92.363800 
	C109.259819,92.364616 105.672028,90.974060 105.096245,95.611259 
	C105.091423,96.730278 105.086601,97.849304 104.872696,99.733185 
	C104.793259,100.783188 104.713814,101.833199 104.300873,103.603218 
	C104.159981,106.050087 104.019089,108.496956 103.520630,111.485847 
	C103.473030,112.338661 103.425423,113.191475 103.161461,114.890724 
	C103.076324,116.925682 102.991180,118.960648 102.624565,121.716652 
	C102.558685,122.482430 102.492805,123.248199 102.147751,124.724174 
z"/>
<path fill="#04ADEE" opacity="1.000000" stroke="none" 
	d="
M101.197914,87.108231 
	C99.568634,102.419022 97.939346,117.729805 96.232811,133.766571 
	C102.397064,134.199295 108.432724,134.840424 114.470009,134.856064 
	C115.622559,134.859039 117.411354,132.557922 117.808350,131.033783 
	C118.675102,127.706047 118.835762,124.194397 119.365990,120.137466 
	C121.951256,120.137466 124.386665,120.044228 126.812218,120.159103 
	C130.544357,120.335869 132.924484,121.207664 133.254593,126.080261 
	C133.830765,134.584534 141.486877,140.799805 151.182571,141.888824 
	C152.503204,142.037170 153.838333,142.056351 155.557495,142.575073 
	C155.912201,144.007584 155.876144,145.000336 155.840103,145.993103 
	C155.691330,146.424988 155.542572,146.856857 155.347610,147.813080 
	C155.301422,148.337402 155.292953,148.736343 155.292953,148.736343 
	C154.715286,148.831146 154.137619,148.925964 152.999680,149.050354 
	C152.222610,149.361176 152.005798,149.642395 151.788986,149.923615 
	C149.769226,149.358383 147.749481,148.793152 145.368118,148.269012 
	C126.979248,146.468674 108.951988,144.627228 90.475647,142.832825 
	C87.481209,142.424911 84.935844,141.969925 81.666946,141.385605 
	C82.497673,134.444366 83.325020,127.531403 84.175270,119.788086 
	C84.834618,113.934921 85.471054,108.912125 86.264572,103.636078 
	C86.556602,102.616966 86.691566,101.851105 86.904388,100.664398 
	C87.586983,95.172699 88.191727,90.101845 89.235733,85.035233 
	C93.515968,85.729065 97.356941,86.418648 101.197914,87.108231 
z"/>
<path fill="#EAF1FD" opacity="1.000000" stroke="none" 
	d="
M167.158081,142.169800 
	C169.069397,140.964432 171.174866,140.022171 173.642136,139.073914 
	C174.226379,140.138412 174.448822,141.208893 174.703171,142.432892 
	C172.151596,142.432892 169.751923,142.432892 167.158081,142.169800 
z"/>
<path fill="#EAF1FD" opacity="1.000000" stroke="none" 
	d="
M156.203766,145.964081 
	C155.876144,145.000336 155.912201,144.007584 155.990051,142.647659 
	C157.095428,142.218903 158.158997,142.157303 159.615356,142.152832 
	C158.861252,143.451675 157.714340,144.693375 156.203766,145.964081 
z"/>
<path fill="#EAF1FD" opacity="1.000000" stroke="none" 
	d="
M150.548309,154.377838 
	C150.661072,153.942596 150.937714,153.678665 151.214355,153.414734 
	C151.323563,153.529282 151.432755,153.643829 151.541962,153.758362 
	C151.265381,154.021957 150.988785,154.285553 150.548309,154.377838 
z"/>
<path fill="#E8EFFD" opacity="1.000000" stroke="none" 
	d="
M222.772064,130.654709 
	C222.584091,130.441010 222.487259,130.070847 222.502106,129.428070 
	C222.727951,129.446869 222.867661,129.731720 222.944870,130.032623 
	C222.980545,130.171692 222.894226,130.342072 222.772064,130.654709 
z"/>
<path fill="#EAF1FD" opacity="1.000000" stroke="none" 
	d="
M152.030945,149.866791 
	C152.005798,149.642395 152.222610,149.361176 152.712036,149.109100 
	C152.825394,149.444824 152.588150,149.668716 152.030945,149.866791 
z"/>
<path fill="#EAF1FD" opacity="1.000000" stroke="none" 
	d="
M155.543762,148.754883 
	C155.292953,148.736343 155.301422,148.337402 155.383484,148.156357 
	C155.716187,148.158112 155.966858,148.340927 156.217514,148.523727 
	C156.076538,148.606964 155.935562,148.690201 155.543762,148.754883 
z"/>
<path fill="#F94051" opacity="1.000000" stroke="none" 
	d="
M4.076695,131.063904 
	C4.366652,123.196098 4.590425,115.714737 5.252722,108.272400 
	C5.415400,106.444366 7.009391,104.743690 7.945356,102.984467 
	C9.311492,104.613068 11.391117,106.044693 11.905640,107.908401 
	C13.271851,112.857094 13.831930,118.021873 14.969840,123.042412 
	C15.677005,126.162476 16.852409,129.176422 17.817656,132.237991 
	C18.450939,132.147629 19.084221,132.057251 19.717505,131.966888 
	C19.717505,124.567848 19.624990,117.166626 19.799271,109.771690 
	C19.832249,108.372353 20.924812,106.997978 21.528465,105.612091 
	C22.285250,106.844215 23.042032,108.076347 23.933956,109.653648 
	C23.946850,116.766594 24.089794,123.554199 23.586058,130.293457 
	C23.348286,133.474503 23.993965,138.536987 19.565693,138.620712 
	C17.404440,138.661560 14.537682,134.585831 13.113427,131.799362 
	C11.426347,128.498703 10.950122,124.579147 9.965906,120.136902 
	C9.600939,117.615204 9.219143,115.884445 8.837347,114.153694 
	C8.563458,114.213356 8.289569,114.273026 8.015680,114.332695 
	C8.125656,116.298340 8.235631,118.263985 8.345606,120.229630 
	C8.873108,127.727547 9.421550,135.224152 9.894062,142.725525 
	C9.938802,143.435791 9.593339,144.745255 9.280023,144.792694 
	C8.435682,144.920578 6.926737,144.766876 6.717998,144.280304 
	C5.769368,142.069046 4.990196,139.742233 4.516890,137.383377 
	C4.131905,135.464676 4.267438,133.441559 4.076695,131.063904 
z"/>
<path fill="#F84051" opacity="1.000000" stroke="none" 
	d="
M28.587948,114.643936 
	C29.933416,108.660248 31.517292,103.293045 38.535439,102.875725 
	C40.117184,102.781662 41.745480,103.470467 43.930511,104.047180 
	C44.983818,105.100182 45.458965,105.904907 45.676941,106.945877 
	C46.386147,113.055862 47.352520,118.929588 48.318893,124.803322 
	C46.538612,128.275192 45.442024,132.477982 42.760448,134.986313 
	C40.637760,136.971863 36.162613,138.168594 33.487198,137.323914 
	C31.085804,136.565765 28.552803,132.718246 28.144705,129.930939 
	C27.439081,125.111534 28.333551,120.057854 28.587948,114.643936 
M43.673519,124.755348 
	C43.192181,120.186035 43.126564,115.512161 42.017002,111.100868 
	C41.595879,109.426613 38.771572,108.356827 37.042610,107.011528 
	C36.010395,108.388611 34.337990,109.649490 34.063065,111.164040 
	C33.148491,116.202339 32.353935,121.328201 32.306366,126.427895 
	C32.285389,128.676971 34.172070,130.943848 35.192677,133.202637 
	C37.576767,131.753555 40.075512,130.454895 42.282169,128.773010 
	C43.044907,128.191650 43.081451,126.657516 43.673519,124.755348 
z"/>
<path fill="#2C4A85" opacity="1.000000" stroke="none" 
	d="
M48.703655,124.799400 
	C47.352520,118.929588 46.386147,113.055862 46.067139,107.007446 
	C47.620850,106.578407 48.904396,106.618416 49.370823,106.020752 
	C51.932102,102.738777 54.821255,103.491287 57.800072,105.449020 
	C57.501446,111.839455 57.271236,117.787888 57.041023,123.736313 
	C54.390152,124.089363 51.739285,124.442421 48.703655,124.799400 
z"/>
<path fill="#F33C4E" opacity="1.000000" stroke="none" 
	d="
M57.144836,124.172928 
	C57.271236,117.787888 57.501446,111.839455 58.097221,105.430573 
	C59.571060,104.984062 60.679337,104.998001 61.899200,105.467331 
	C62.102959,111.545044 62.195129,117.167351 62.287300,122.789665 
	C62.476585,128.191742 62.665874,133.593826 62.884880,139.405609 
	C61.973736,140.821106 61.032875,141.826859 58.940376,144.063690 
	C58.313770,136.857986 57.781208,130.733765 57.144836,124.172928 
z"/>
<path fill="#EC95A7" opacity="1.000000" stroke="none" 
	d="
M8.595517,120.207489 
	C8.235631,118.263985 8.125656,116.298340 8.015680,114.332695 
	C8.289569,114.273026 8.563458,114.213356 8.837347,114.153694 
	C9.219143,115.884445 9.600939,117.615204 9.913120,119.734184 
	C9.510815,120.143387 9.178122,120.164368 8.595517,120.207489 
z"/>
<path fill="#1B88CB" opacity="1.000000" stroke="none" 
	d="
M101.614243,87.076172 
	C97.356941,86.418648 93.515968,85.729065 88.789047,85.065247 
	C83.604713,85.081085 79.299500,84.917564 75.010056,85.108582 
	C71.413063,85.268761 68.356850,85.073883 68.575974,79.294823 
	C58.898880,80.939728 49.760174,82.493118 40.621468,84.046501 
	C34.588203,84.410065 28.554939,84.773628 21.958937,85.171104 
	C21.556259,82.340584 21.146666,79.461472 20.566135,76.241852 
	C18.968275,64.875435 17.541355,53.849525 16.006248,42.413204 
	C15.898060,40.553154 15.898060,39.103516 15.898060,37.084949 
	C20.750322,36.414352 25.514187,35.755970 31.128300,35.029369 
	C42.503914,33.752033 53.036552,32.602226 63.552147,31.313396 
	C70.822708,30.422289 71.606628,31.158298 72.199707,37.056202 
	C72.852890,43.551849 74.570930,49.940426 75.825073,56.375645 
	C77.703178,53.736694 78.665642,51.128864 79.644745,48.527298 
	C83.639023,37.914177 83.640892,37.914883 95.489067,37.989479 
	C99.908821,38.512737 101.120316,36.593403 101.048126,32.794487 
	C100.914886,25.783415 99.912994,25.761715 108.146446,26.075634 
	C119.865364,26.522444 131.564972,27.512051 143.285049,27.870760 
	C146.988068,27.984097 148.465927,28.982077 148.047882,32.701557 
	C147.800262,34.904671 147.785721,36.980766 151.131851,37.058174 
	C157.406281,37.203320 163.672897,37.686398 169.942764,38.028919 
	C172.860794,38.351231 175.778839,38.673542 179.462067,39.080372 
	C178.043503,32.868191 176.806564,27.451384 175.489136,21.682095 
	C179.583298,20.633980 183.247009,19.696060 187.261505,18.560139 
	C188.220108,18.263735 188.827942,18.165331 189.971191,17.977535 
	C190.506622,17.888145 190.954147,17.684458 190.954147,17.684458 
	C191.978714,18.932531 193.469467,20.025145 193.946533,21.455790 
	C195.931747,27.409136 197.611603,33.464310 199.650711,39.752625 
	C200.776138,43.352074 201.509216,46.730888 202.624878,49.978252 
	C202.941345,50.899361 204.473343,52.145256 205.277084,52.031845 
	C209.408600,51.448875 210.732330,53.889351 211.718506,57.146809 
	C212.383438,59.343163 213.372360,61.441433 214.449524,63.836174 
	C215.572983,66.578766 216.463272,69.068771 217.623596,72.052551 
	C217.979538,72.689468 218.065445,72.832611 218.151337,72.975754 
	C220.079315,79.925522 218.358093,83.966705 211.451508,88.607719 
	C203.791901,89.240883 196.288925,89.604691 188.337463,89.559853 
	C186.035446,83.126213 184.239532,77.082687 182.310730,71.081886 
	C180.666214,65.965530 178.747620,60.906528 183.316299,56.203239 
	C183.672394,55.836632 183.716690,54.928200 183.573700,54.354374 
	C182.621918,50.534443 181.579651,46.737061 180.566788,42.932346 
	C178.895279,50.276344 178.122131,57.508511 177.377029,64.743561 
	C176.619705,72.097275 175.890045,79.453819 175.129883,86.991333 
	C170.692413,86.712219 167.059082,86.483688 162.946075,86.186172 
	C151.485153,85.387474 140.503906,84.657761 130.176819,83.971519 
	C129.482651,80.194595 129.935516,75.858368 128.062469,74.276840 
	C125.962776,72.503952 121.758720,73.223366 117.825768,72.786812 
	C119.164650,77.764938 120.179352,81.537704 121.211784,85.376396 
	C115.809128,85.965233 111.463554,86.438850 107.117973,86.912468 
	C105.422173,86.956345 103.726364,87.000229 101.614243,87.076172 
M206.101334,85.126549 
	C206.101334,85.126549 206.106201,85.221771 206.745010,85.180817 
	C207.457184,84.772926 208.169357,84.365028 209.600830,83.733376 
	C213.410858,79.988403 213.014832,76.005791 209.999588,71.205910 
	C206.859711,70.184937 203.758148,69.015846 200.567581,68.190933 
	C198.114944,67.556808 195.550293,67.355980 193.012177,66.305313 
	C192.953583,65.871597 192.894989,65.437881 193.218384,64.351791 
	C197.388901,63.218323 201.559402,62.084858 206.112076,60.847530 
	C205.809998,59.755936 205.341843,58.064121 204.856339,56.309662 
	C201.085846,56.901688 197.703705,57.367760 194.346939,57.974182 
	C188.501358,59.030216 186.140762,61.746410 186.332794,67.654938 
	C186.910904,68.767349 187.488998,69.879753 188.303757,71.667747 
	C192.534698,75.690346 197.864502,74.665550 203.573929,75.199577 
	C206.809555,78.794373 203.968170,80.482887 201.166260,80.977516 
	C197.694031,81.590469 194.031311,81.124306 188.760986,81.124306 
	C191.078232,83.609818 192.546097,85.184273 194.495346,86.907593 
	C194.659622,86.872658 194.823898,86.837715 195.786652,86.959801 
	C196.865799,86.904358 197.944962,86.848915 199.744873,86.922684 
	C200.669846,86.668816 201.594803,86.414948 203.157806,86.240158 
	C203.777710,86.081261 204.397629,85.922371 205.509674,85.821815 
	C205.875381,85.746971 206.101700,85.528023 206.101334,85.126549 
M127.498680,43.519581 
	C127.484550,42.671955 127.470421,41.824329 127.693130,40.320339 
	C127.676445,39.856701 127.659760,39.393063 128.301498,38.471642 
	C132.089096,38.471642 135.876694,38.471642 140.278107,38.471642 
	C140.278107,36.924675 140.278107,35.483997 140.549194,33.299995 
	C139.830307,32.627747 139.118195,31.378395 138.391541,31.369886 
	C127.655289,31.244181 116.917114,31.283245 105.841591,31.283245 
	C105.841591,31.648458 105.841591,32.779865 105.530289,34.517357 
	C105.315628,39.291206 108.930214,36.874287 111.631241,37.666477 
	C112.097130,37.627945 112.563026,37.589417 113.822227,37.765522 
	C115.185661,37.885975 116.549103,38.006428 117.905136,38.846272 
	C117.944283,39.561424 117.983429,40.276573 117.863045,41.658173 
	C117.912415,42.109337 117.961777,42.560505 117.826927,43.732037 
	C117.839493,44.471268 117.852051,45.210503 117.503593,46.610973 
	C117.457275,48.399849 117.410957,50.188725 117.169823,52.721684 
	C117.187599,53.483288 117.205376,54.244896 117.078865,55.872272 
	C117.079987,57.917076 117.081108,59.961880 116.874313,62.880512 
	C116.874313,64.443176 116.874313,66.005844 116.874313,67.941299 
	C119.856331,67.941299 122.426651,67.941299 125.602158,67.993683 
	C125.763542,67.663887 125.924927,67.334091 126.274597,66.220428 
	C126.264137,65.155457 126.253677,64.090492 126.564568,62.328716 
	C126.635033,60.524662 126.705505,58.720612 126.967140,56.133778 
	C126.937958,55.047714 126.908768,53.961651 127.030243,52.012951 
	C127.048027,49.672024 127.065819,47.331100 127.247009,44.537262 
	C127.247009,44.537262 127.156494,44.064297 127.498680,43.519581 
M101.943932,77.819077 
	C103.421646,80.522888 110.343765,82.160553 112.133415,80.120399 
	C112.432449,79.779510 111.839577,78.656227 111.423897,77.159210 
	C110.603981,75.137939 109.784065,73.116669 108.927010,70.423393 
	C108.557060,69.608444 108.187103,68.793495 107.802376,67.346428 
	C107.270935,66.211189 106.739487,65.075951 106.137100,63.188637 
	C104.740791,59.811462 103.344490,56.434288 102.033630,52.335468 
	C101.396500,50.791946 100.759369,49.248425 100.075249,46.940636 
	C98.797256,40.394878 93.628632,43.703335 90.110085,43.153858 
	C85.672379,42.460838 86.205246,46.525780 84.814972,49.619099 
	C84.474159,50.721714 84.133354,51.824329 83.303886,53.434097 
	C81.933968,57.270096 80.564049,61.106094 78.905083,65.537712 
	C78.643112,66.356461 78.381134,67.175201 77.704414,68.576904 
	C77.112869,70.376801 76.521324,72.176697 75.431221,74.457352 
	C74.744308,76.390266 74.057388,78.323181 73.312935,80.418015 
	C82.993500,81.202263 82.993500,81.202263 85.784721,73.957550 
	C86.528069,73.870369 87.271408,73.783188 88.495064,73.850502 
	C88.655739,73.800819 88.816414,73.751137 89.875076,73.827812 
	C92.592293,73.778488 95.309502,73.729164 98.719986,73.875885 
	C99.795967,74.926460 100.871941,75.977043 101.943932,77.819077 
M38.216091,46.214378 
	C37.487953,45.139610 36.759811,44.064838 35.825970,42.226624 
	C32.565331,42.137592 29.302977,42.088421 26.044544,41.948128 
	C22.897230,41.812614 22.465033,43.454956 23.210163,46.616318 
	C23.458765,47.409008 23.707367,48.201702 23.872919,49.749630 
	C23.984209,50.497894 24.095499,51.246159 24.122643,52.635727 
	C24.368294,53.435425 24.613945,54.235123 24.803461,55.883423 
	C25.258453,58.905205 25.713446,61.926987 26.125559,65.766800 
	C26.511656,68.195305 26.897755,70.623810 27.241285,73.637405 
	C27.428505,73.965546 27.615725,74.293694 27.605658,75.081917 
	C27.719103,75.389320 27.832548,75.696724 27.884174,76.884445 
	C30.293743,82.130890 33.801788,77.568733 37.397148,78.597076 
	C36.856865,76.093399 36.491268,74.399208 36.200710,71.883568 
	C35.741928,68.934868 35.283142,65.986176 34.895046,62.255123 
	C34.302929,59.517555 33.710812,56.779984 33.749298,53.987930 
	C34.170612,53.990986 34.591923,53.994041 35.209801,54.456566 
	C35.463821,54.663330 35.717842,54.870094 35.996593,55.010468 
	C35.996593,55.010468 35.933029,55.041759 36.043869,55.694714 
	C37.014313,57.134846 37.984753,58.574974 39.074524,60.617588 
	C39.663895,61.431496 40.253265,62.245403 41.020424,63.756111 
	C43.017849,66.006866 42.850117,70.400452 47.554173,69.972694 
	C53.522808,69.429962 51.785046,64.385933 53.371040,60.521397 
	C53.541534,59.691601 53.712025,58.861805 54.208782,57.339695 
	C54.539211,55.605587 54.869637,53.871479 55.134071,52.057312 
	C55.134071,52.057312 55.125008,52.160667 55.664730,51.834232 
	C55.797588,51.229298 55.930447,50.624359 56.513504,49.911407 
	C56.513504,49.911407 56.963890,50.018665 57.003586,50.821075 
	C57.578720,53.876186 58.153854,56.931297 58.750500,60.864407 
	C59.291439,64.558304 59.832375,68.252197 60.273483,72.652527 
	C61.551514,78.347191 65.633545,73.778000 68.184357,74.813713 
	C68.492531,73.543381 68.800713,72.273048 69.147552,70.145653 
	C68.534882,66.372063 67.922218,62.598473 67.343750,57.984371 
	C66.857895,54.990204 66.372047,51.996033 65.977089,48.371578 
	C65.819412,47.557690 65.661736,46.743797 65.458878,45.135384 
	C65.265747,44.093857 65.072617,43.052334 64.964500,41.267982 
	C64.528648,40.101128 64.068245,37.917408 63.660793,37.927242 
	C60.199207,38.010788 56.545071,37.945843 53.386608,39.111782 
	C52.021107,39.615856 51.685108,42.908798 50.435001,45.423702 
	C50.298401,46.284832 50.161800,47.145966 49.655605,48.598206 
	C49.385090,49.719952 49.114574,50.841698 48.320717,52.466084 
	C47.843948,54.630962 47.367176,56.795845 46.450382,59.024025 
	C46.450382,59.024025 46.010494,58.959846 45.776642,58.327717 
	C44.146221,56.221073 42.515800,54.114426 40.874973,51.350723 
	C40.055321,49.849407 39.235664,48.348087 38.216091,46.214378 
M138.830063,49.745041 
	C138.794235,50.796864 138.758423,51.848690 138.383011,53.459396 
	C138.358017,54.323383 138.333023,55.187374 138.165909,56.493412 
	C138.165909,56.493412 138.246552,56.950687 138.065140,57.782120 
	C138.055756,59.196045 138.046387,60.609974 137.834610,62.825226 
	C137.583099,66.545456 137.331573,70.265686 136.876480,74.719963 
	C136.785995,76.006943 136.695526,77.293922 136.583176,78.891937 
	C139.757889,78.891937 142.676498,78.891937 146.026688,78.891937 
	C146.134476,77.236938 146.238388,75.641495 146.662521,73.306366 
	C146.871170,70.202621 147.079819,67.098877 148.169739,63.833771 
	C152.653717,63.931469 157.137680,64.029167 161.718353,64.927094 
	C161.509415,68.613670 161.300476,72.300247 160.892426,76.668365 
	C161.684875,83.982819 167.071350,78.216003 170.065460,81.091614 
	C170.272415,77.924942 170.397705,76.007683 170.782623,73.206055 
	C170.880280,70.421593 170.977936,67.637131 171.345795,64.088684 
	C171.621567,59.747879 171.897354,55.407078 172.532822,50.360977 
	C172.651489,48.332317 172.770157,46.303658 172.897537,44.126373 
	C169.377563,43.956257 166.473755,43.815918 163.067245,43.651283 
	C163.067245,46.140942 163.067245,48.567036 162.873459,51.784397 
	C162.591461,53.399635 162.309448,55.014874 161.952927,57.056953 
	C157.238693,56.714165 152.725327,56.385986 148.064529,56.047085 
	C148.064529,53.935509 148.064529,52.462109 148.372498,50.249916 
	C148.574448,48.005978 148.776398,45.762039 149.007462,43.194725 
	C145.547470,42.943363 142.512054,42.722847 139.037247,42.470406 
	C139.037247,44.753815 139.037247,46.866718 138.830063,49.745041 
M186.879807,40.945885 
	C187.506439,45.072701 188.133072,49.199516 188.809723,53.655697 
	C191.890900,52.943272 193.884201,52.482384 196.613464,51.851322 
	C194.674484,47.202694 193.000671,43.189785 191.966721,38.722176 
	C191.505920,36.206779 191.045105,33.691383 190.516479,30.805695 
	C187.905197,31.399578 185.907135,31.853998 182.994110,32.516510 
	C184.477875,35.524799 185.637756,37.876408 186.879807,40.945885 
M181.818192,25.906111 
	C182.885605,32.047894 186.392365,28.156994 189.489197,28.007444 
	C189.011276,26.072161 188.636307,24.553816 187.994293,21.954115 
	C185.515030,23.233156 183.588837,24.226873 181.818192,25.906111 
z"/>
<path fill="#03ADEE" opacity="1.000000" stroke="none" 
	d="
M169.959717,37.599937 
	C163.672897,37.686398 157.406281,37.203320 151.131851,37.058174 
	C147.785721,36.980766 147.800262,34.904671 148.047882,32.701557 
	C148.465927,28.982077 146.988068,27.984097 143.285049,27.870760 
	C131.564972,27.512051 119.865364,26.522444 108.146446,26.075634 
	C99.912994,25.761715 100.914886,25.783415 101.048126,32.794487 
	C101.120316,36.593403 99.908821,38.512737 95.552299,37.590416 
	C95.857582,30.845234 96.517342,24.483278 97.177109,18.121323 
	C97.654205,15.957623 98.131310,13.793924 98.719170,11.127960 
	C103.035591,11.476387 107.556114,11.841290 112.816475,12.336432 
	C114.703148,12.541774 115.849991,12.616875 116.996826,12.691977 
	C117.440407,12.781257 117.883980,12.870538 118.665344,12.910541 
	C136.611008,14.761059 154.218887,16.660854 172.337723,18.615780 
	C171.519257,25.047928 170.747955,31.109440 169.959717,37.599937 
z"/>
<path fill="#224D8A" opacity="1.000000" stroke="none" 
	d="
M96.940903,18.449806 
	C96.517342,24.483278 95.857582,30.845234 95.134590,37.606255 
	C83.640892,37.914883 83.639023,37.914177 79.644745,48.527298 
	C78.665642,51.128864 77.703178,53.736694 75.825073,56.375645 
	C74.570930,49.940426 72.852890,43.551849 72.199707,37.056202 
	C71.606628,31.158298 70.822708,30.422289 63.552147,31.313396 
	C53.036552,32.602226 42.503914,33.752033 31.550638,34.959152 
	C30.857643,33.169975 30.592556,31.382795 30.240742,29.010906 
	C35.941391,28.072477 41.588501,27.142862 47.617592,26.075260 
	C64.234612,23.550947 80.469658,21.164618 96.940903,18.449806 
z"/>
<path fill="#224B88" opacity="1.000000" stroke="none" 
	d="
M40.663612,84.476486 
	C49.760174,82.493118 58.898880,80.939728 68.575974,79.294823 
	C68.356850,85.073883 71.413063,85.268761 75.010056,85.108582 
	C79.299500,84.917564 83.604713,85.081085 88.349785,85.061005 
	C88.191727,90.101845 87.586983,95.172699 86.543503,100.483490 
	C74.242012,100.147514 62.382774,99.451538 50.513329,99.105484 
	C48.356392,99.042603 46.157722,100.410904 43.978317,101.118500 
	C42.887463,95.714493 41.796608,90.310478 40.663612,84.476486 
z"/>
<path fill="#E63449" opacity="1.000000" stroke="none" 
	d="
M43.942234,101.478500 
	C46.157722,100.410904 48.356392,99.042603 50.513329,99.105484 
	C62.382774,99.451538 74.242012,100.147514 86.465637,100.904327 
	C86.691566,101.851105 86.556602,102.616966 85.784653,103.633942 
	C80.368416,103.917511 75.584625,103.835045 70.811600,104.024208 
	C67.795288,104.143745 64.795059,104.668785 61.787613,105.011948 
	C60.679337,104.998001 59.571060,104.984062 58.165638,104.988564 
	C54.821255,103.491287 51.932102,102.738777 49.370823,106.020752 
	C48.904396,106.618416 47.620850,106.578407 46.324310,106.771194 
	C45.458965,105.904907 44.983818,105.100182 44.270309,104.148346 
	C43.990013,103.280319 43.948082,102.559418 43.942234,101.478500 
z"/>
<path fill="#DCE9FD" opacity="1.000000" stroke="none" 
	d="
M190.844421,17.571377 
	C190.954147,17.684458 190.506622,17.888145 190.261902,17.864759 
	C190.154694,17.482607 190.393875,17.354916 190.844421,17.571377 
z"/>
<path fill="#DCE9FD" opacity="1.000000" stroke="none" 
	d="
M116.979675,12.337646 
	C115.849991,12.616875 114.703148,12.541774 113.264328,12.284878 
	C113.710632,11.428624 114.364273,10.534941 115.233414,10.199327 
	C115.535164,10.082806 116.370750,11.348779 116.979675,12.337646 
z"/>
<path fill="#E6EEFE" opacity="1.000000" stroke="none" 
	d="
M220.544312,74.472198 
	C220.572876,74.522110 220.515762,74.422279 220.544312,74.472198 
z"/>
<path fill="#E6EEFE" opacity="1.000000" stroke="none" 
	d="
M218.286575,72.855011 
	C218.065445,72.832611 217.979538,72.689468 217.875000,72.296677 
	C218.044846,72.276115 218.233322,72.505188 218.286575,72.855011 
z"/>
<path fill="#254B87" opacity="1.000000" stroke="none" 
	d="
M61.899200,105.467339 
	C64.795059,104.668785 67.795288,104.143745 70.811600,104.024208 
	C75.584625,103.835045 80.368416,103.917511 85.627571,103.887177 
	C85.471054,108.912125 84.834618,113.934921 84.130188,119.336044 
	C77.058510,120.725891 70.054832,121.737419 62.669224,122.769310 
	C62.195129,117.167351 62.102959,111.545044 61.899200,105.467339 
z"/>
<path fill="#03ABED" opacity="1.000000" stroke="none" 
	d="
M107.544640,86.935410 
	C111.463554,86.438850 115.809128,85.965233 121.211784,85.376396 
	C120.179352,81.537704 119.164650,77.764938 117.825768,72.786812 
	C121.758720,73.223366 125.962776,72.503952 128.062469,74.276840 
	C129.935516,75.858368 129.482651,80.194595 130.176819,83.971519 
	C140.503906,84.657761 151.485153,85.387474 162.866379,86.558350 
	C163.050064,89.159927 162.833771,91.320335 162.617477,93.480743 
	C154.847778,93.480743 147.078079,93.480743 138.919846,93.480743 
	C138.829163,89.654533 135.040314,89.572754 131.715134,89.207924 
	C123.813377,88.340958 115.887459,87.694122 107.544640,86.935410 
z"/>
<path fill="#DCE9FB" opacity="1.000000" stroke="none" 
	d="
M162.979218,93.534958 
	C162.833771,91.320335 163.050064,89.159927 163.346054,86.627335 
	C167.059082,86.483688 170.692413,86.712219 175.129883,86.991333 
	C175.890045,79.453819 176.619705,72.097275 177.377029,64.743561 
	C178.122131,57.508511 178.895279,50.276344 180.566788,42.932346 
	C181.579651,46.737061 182.621918,50.534443 183.573700,54.354374 
	C183.716690,54.928200 183.672394,55.836632 183.316299,56.203239 
	C178.747620,60.906528 180.666214,65.965530 182.310730,71.081886 
	C184.239532,77.082687 186.035446,83.126213 187.859085,89.531342 
	C184.684952,89.886345 181.525299,89.658707 178.401093,89.896652 
	C175.627853,90.107872 172.338760,88.356865 170.369003,92.583282 
	C169.822571,93.755730 165.779694,93.298637 162.979218,93.534958 
z"/>
<path fill="#EADF24" opacity="1.000000" stroke="none" 
	d="
M200.833237,127.059311 
	C198.865601,123.926094 196.897964,120.792870 195.126740,117.064964 
	C197.457336,116.291122 199.591522,116.111969 201.725693,115.932823 
	C202.490738,116.446434 203.255798,116.960037 204.417664,117.187195 
	C207.522827,116.909584 210.231171,116.918404 212.939514,116.927231 
	C213.221481,119.995354 213.503464,123.063484 213.457016,126.608612 
	C209.030151,127.076851 204.931686,127.068085 200.833237,127.059311 
z"/>
<path fill="#EBDF32" opacity="1.000000" stroke="none" 
	d="
M167.828995,130.967041 
	C160.463989,138.653534 147.267715,138.088791 141.152618,129.432632 
	C143.751526,127.555077 146.044250,126.057182 148.336990,124.559296 
	C151.521210,129.671219 153.909592,130.277435 159.720703,127.528442 
	C162.685715,128.794357 165.257355,129.880692 167.828995,130.967041 
z"/>
<path fill="#EEF59C" opacity="1.000000" stroke="none" 
	d="
M103.878204,110.943825 
	C104.019089,108.496956 104.159981,106.050087 104.899323,103.282951 
	C108.292198,103.314575 111.086632,103.666458 113.881058,104.018341 
	C114.974327,105.011230 115.949577,106.650536 117.183006,106.875725 
	C120.875221,107.549805 124.668419,107.670731 129.355606,108.091362 
	C128.811264,110.517723 128.325333,112.683800 127.320564,114.478256 
	C119.160561,113.052353 111.519379,111.998093 103.878204,110.943825 
z"/>
<path fill="#DCEF59" opacity="1.000000" stroke="none" 
	d="
M131.028030,97.812958 
	C131.612457,100.715401 130.066483,101.168037 127.641037,100.941246 
	C123.518181,100.555733 119.380356,100.330200 114.419937,99.936478 
	C110.754623,99.546455 107.918205,99.257385 105.081787,98.968323 
	C105.086601,97.849304 105.091423,96.730278 105.519897,95.079285 
	C114.305046,95.635857 122.666534,96.724403 131.028030,97.812958 
z"/>
<path fill="#E3DB2C" opacity="1.000000" stroke="none" 
	d="
M188.113937,114.999519 
	C188.402115,118.375473 188.690277,121.751434 188.519821,125.577507 
	C185.407486,126.354752 182.753799,126.681870 180.100098,127.008987 
	C179.825409,123.614044 179.550720,120.219101 179.742798,116.406464 
	C182.844345,115.659019 185.479141,115.329269 188.113937,114.999519 
z"/>
<path fill="#EBF191" opacity="1.000000" stroke="none" 
	d="
M201.640915,115.620979 
	C199.591522,116.111969 197.457336,116.291122 195.009735,116.725449 
	C192.699829,113.826576 190.703354,110.672539 188.209412,107.186394 
	C187.475235,106.569931 187.238541,106.285576 187.417191,105.999878 
	C190.175476,105.676193 192.518387,105.353844 194.861313,105.031494 
	C197.092926,108.457367 199.324539,111.883247 201.640915,115.620979 
z"/>
<path fill="#E8DE21" opacity="1.000000" stroke="none" 
	d="
M168.101562,130.723846 
	C165.257355,129.880692 162.685715,128.794357 160.045074,127.355019 
	C160.362595,125.282593 160.749100,123.563164 161.544434,121.645981 
	C164.914200,121.318848 167.875168,121.189491 170.836121,121.060135 
	C170.015457,124.200302 169.194794,127.340477 168.101562,130.723846 
z"/>
<path fill="#DEED5F" opacity="1.000000" stroke="none" 
	d="
M160.883209,107.001228 
	C160.603256,104.564690 160.323303,102.128151 159.978531,99.127464 
	C163.320190,98.956787 166.223480,98.808495 169.848221,98.623360 
	C169.986404,101.594887 170.112869,104.314117 169.761032,107.489685 
	C166.482895,107.631096 163.683060,107.316162 160.883209,107.001228 
z"/>
<path fill="#DDBD2E" opacity="1.000000" stroke="none" 
	d="
M131.207703,97.528107 
	C122.666534,96.724403 114.305046,95.635857 105.624832,94.671585 
	C105.672028,90.974060 109.259819,92.364616 110.729218,92.363800 
	C116.998749,92.360313 123.282982,93.109520 129.520035,93.909920 
	C130.272675,94.006508 130.771103,96.083916 131.207703,97.528107 
z"/>
<path fill="#EFF491" opacity="1.000000" stroke="none" 
	d="
M187.001831,106.001221 
	C187.238541,106.285576 187.475235,106.569931 187.965790,106.974899 
	C188.221512,109.436707 188.223404,111.777908 188.169617,114.559311 
	C185.479141,115.329269 182.844345,115.659019 179.804138,115.989258 
	C179.272339,113.951546 179.145981,111.913368 179.477966,109.438919 
	C182.325073,108.746544 185.467056,110.015060 186.251709,106.003075 
	C186.668442,106.000465 186.835129,106.000847 187.001831,106.001221 
z"/>
<path fill="#E7DD20" opacity="1.000000" stroke="none" 
	d="
M102.906036,120.995605 
	C102.991180,118.960648 103.076324,116.925682 103.652359,114.478127 
	C107.037704,114.404327 109.932152,114.743126 112.826599,115.081932 
	C112.699638,116.849731 112.572685,118.617538 111.868858,120.741318 
	C108.496666,121.063408 105.701355,121.029510 102.906036,120.995605 
z"/>
<path fill="#EBDE17" opacity="1.000000" stroke="none" 
	d="
M148.307480,124.228226 
	C146.044250,126.057182 143.751526,127.555077 141.048492,129.092590 
	C140.401062,126.352501 140.163910,123.572777 140.248352,120.385254 
	C140.569946,119.977440 140.984482,119.859535 141.387466,119.915192 
	C142.871292,120.020714 143.952148,120.070580 145.032990,120.120445 
	C146.114655,121.379349 147.196304,122.638245 148.307480,124.228226 
z"/>
<path fill="#E5E66C" opacity="1.000000" stroke="none" 
	d="
M113.056221,114.734222 
	C109.932152,114.743126 107.037704,114.404327 103.760544,114.054909 
	C103.425423,113.191475 103.473030,112.338661 103.699417,111.214836 
	C111.519379,111.998093 119.160561,113.052353 126.917847,114.476929 
	C122.451248,114.693672 117.868546,114.540092 113.056221,114.734222 
z"/>
<path fill="#F1F89D" opacity="1.000000" stroke="none" 
	d="
M211.825089,106.002098 
	C212.193314,108.078308 212.561554,110.154518 212.446198,112.623764 
	C209.335556,113.028397 206.708527,113.039993 204.081482,113.051590 
	C203.812607,110.817673 203.543716,108.583748 204.030060,106.169884 
	C207.131897,105.993988 209.478485,105.998039 211.825089,106.002098 
z"/>
<path fill="#E7F67F" opacity="1.000000" stroke="none" 
	d="
M187.417191,105.999878 
	C186.835129,106.000847 186.668442,106.000465 185.817200,106.001602 
	C183.108566,106.004852 181.084488,106.006584 179.060394,106.008316 
	C178.968246,105.254494 178.876099,104.500664 179.268478,103.360847 
	C181.846436,102.660782 183.940018,102.347656 186.033279,102.032372 
	C188.262512,101.696625 190.491455,101.358841 192.720520,101.021957 
	C193.434891,102.136902 194.149261,103.251854 194.862473,104.699150 
	C192.518387,105.353844 190.175476,105.676193 187.417191,105.999878 
z"/>
<path fill="#E4F08E" opacity="1.000000" stroke="none" 
	d="
M160.817841,107.416595 
	C163.683060,107.316162 166.482895,107.631096 169.700638,107.943230 
	C170.305389,109.387451 170.492233,110.834473 170.198700,112.644577 
	C166.835983,112.675537 163.953659,112.343422 161.071320,112.011307 
	C160.965042,110.618195 160.858765,109.225075 160.817841,107.416595 
z"/>
<path fill="#DFF368" opacity="1.000000" stroke="none" 
	d="
M192.654053,100.730156 
	C190.491455,101.358841 188.262512,101.696625 186.033279,102.032372 
	C183.940018,102.347656 181.846436,102.660782 179.340546,102.985489 
	C178.738190,101.895134 178.548294,100.794167 178.845642,99.352646 
	C183.175507,98.676140 187.018143,98.340179 190.860779,98.004211 
	C191.436371,98.815598 192.011978,99.626984 192.654053,100.730156 
z"/>
<path fill="#E8DD3E" opacity="1.000000" stroke="none" 
	d="
M111.830223,124.983124 
	C112.190247,134.522385 105.410324,126.936554 102.147751,129.938919 
	C102.147751,127.473785 102.147751,126.098984 102.704956,124.368706 
	C106.118187,124.336533 108.974205,124.659828 111.830223,124.983124 
z"/>
<path fill="#E7DC3E" opacity="1.000000" stroke="none" 
	d="
M200.914276,127.443085 
	C204.931686,127.068085 209.030151,127.076851 213.404099,127.028275 
	C213.754089,128.092728 213.828583,129.214508 213.959824,131.190842 
	C209.465958,129.622604 204.104889,134.415192 200.914276,127.443085 
z"/>
<path fill="#F2F9A3" opacity="1.000000" stroke="none" 
	d="
M161.014572,112.424393 
	C163.953659,112.343422 166.835983,112.675537 170.120773,113.010498 
	C170.639191,114.392319 170.755142,115.771301 170.387329,117.573318 
	C167.599396,117.999573 165.295212,118.002792 162.844574,117.772446 
	C162.190872,117.357605 161.683640,117.176315 161.176422,116.995018 
	C161.103561,115.609169 161.030685,114.223312 161.014572,112.424393 
z"/>
<path fill="#F1E435" opacity="1.000000" stroke="none" 
	d="
M180.040115,127.445587 
	C182.753799,126.681870 185.407486,126.354752 188.456757,126.023621 
	C188.952637,127.816490 189.052917,129.613358 189.173340,131.770950 
	C186.212585,131.770950 183.601929,131.770950 180.370621,131.770950 
	C180.258865,130.658005 180.119507,129.270081 180.040115,127.445587 
z"/>
<path fill="#F3F9A4" opacity="1.000000" stroke="none" 
	d="
M145.322906,119.973198 
	C143.952148,120.070580 142.871292,120.020714 141.379486,119.553154 
	C140.327805,117.400642 139.687088,115.665825 138.797287,113.256599 
	C142.127701,113.515816 144.869461,113.729218 147.611237,113.942619 
	C147.688232,114.710594 147.765244,115.478561 147.622650,116.720917 
	C147.216095,117.359444 147.083725,117.559700 147.005966,117.796051 
	C146.541580,118.472679 146.077194,119.149315 145.322906,119.973198 
z"/>
<path fill="#D2E558" opacity="1.000000" stroke="none" 
	d="
M190.796677,97.672325 
	C187.018143,98.340179 183.175507,98.676140 178.915497,99.021851 
	C178.422180,98.389130 178.049332,97.554794 178.319824,97.136208 
	C179.776855,94.881554 189.033783,95.091591 190.796677,97.672325 
z"/>
<path fill="#E4F477" opacity="1.000000" stroke="none" 
	d="
M104.977242,99.350754 
	C107.918205,99.257385 110.754623,99.546455 113.993027,99.996826 
	C114.286591,101.192261 114.178185,102.226387 113.975418,103.639435 
	C111.086632,103.666458 108.292198,103.314575 105.066071,102.922943 
	C104.713814,101.833199 104.793259,100.783188 104.977242,99.350754 
z"/>
<path fill="#DDEA98" opacity="1.000000" stroke="none" 
	d="
M147.692566,113.606468 
	C144.869461,113.729218 142.127701,113.515816 138.797287,113.256599 
	C139.687088,115.665825 140.327805,117.400642 140.976501,119.497498 
	C140.984482,119.859535 140.569946,119.977440 140.356720,120.008644 
	C139.429520,116.974251 138.715576,113.908653 138.446777,110.432327 
	C141.673981,109.992111 144.456039,109.962624 147.238083,109.933128 
	C147.416687,111.045525 147.595291,112.157921 147.692566,113.606468 
z"/>
<path fill="#DFED52" opacity="1.000000" stroke="none" 
	d="
M137.964172,103.022522 
	C136.841949,97.569336 141.676163,99.759232 143.511124,99.348145 
	C146.646286,98.645775 147.425827,101.359772 146.703033,104.416634 
	C143.525436,104.128105 140.744797,103.575310 137.964172,103.022522 
z"/>
<path fill="#E0ED50" opacity="1.000000" stroke="none" 
	d="
M203.199799,98.986031 
	C203.142899,97.854622 203.085999,96.723206 202.971283,94.441956 
	C205.981018,97.000832 210.981415,90.684235 211.579147,98.551743 
	C208.446167,98.990425 205.822998,98.988228 203.199799,98.986031 
z"/>
<path fill="#E8F77F" opacity="1.000000" stroke="none" 
	d="
M211.896820,105.603027 
	C209.478485,105.998039 207.131897,105.993988 204.341858,105.977524 
	C203.617554,104.875847 203.336670,103.786583 203.575073,102.353134 
	C206.758774,102.007576 209.423157,102.006203 212.087540,102.004837 
	C212.047867,103.071213 212.008194,104.137581 211.896820,105.603027 
z"/>
<path fill="#ECE963" opacity="1.000000" stroke="none" 
	d="
M162.991043,118.006004 
	C165.295212,118.002792 167.599396,117.999573 170.331512,117.986649 
	C170.827728,118.748299 170.896011,119.519653 170.900208,120.675568 
	C167.875168,121.189491 164.914200,121.318848 161.627563,121.270203 
	C161.242477,120.619347 161.183044,120.146507 161.447830,119.301559 
	C162.178375,118.621628 162.584717,118.313820 162.991043,118.006004 
z"/>
<path fill="#EFED68" opacity="1.000000" stroke="none" 
	d="
M204.018158,113.441132 
	C206.708527,113.039993 209.335556,113.028397 212.398849,113.021095 
	C212.912857,114.068695 212.990601,115.112000 213.003937,116.541267 
	C210.231171,116.918404 207.522827,116.909584 204.493958,116.937622 
	C204.100571,115.926544 204.027710,114.878609 204.018158,113.441132 
z"/>
<path fill="#E3F66E" opacity="1.000000" stroke="none" 
	d="
M137.896942,103.433640 
	C140.744797,103.575310 143.525436,104.128105 146.637100,104.824860 
	C147.035431,105.422020 147.102722,105.875198 146.669205,106.665924 
	C143.484314,107.333694 140.800232,107.663918 138.116165,107.994141 
	C138.020691,106.611015 137.925201,105.227882 137.896942,103.433640 
z"/>
<path fill="#E9F782" opacity="1.000000" stroke="none" 
	d="
M138.052277,108.324364 
	C140.800232,107.663918 143.484314,107.333694 146.594208,107.003876 
	C147.124191,107.735016 147.228378,108.465752 147.285309,109.564812 
	C144.456039,109.962624 141.673981,109.992111 138.510162,110.004303 
	C138.081726,109.542862 138.035065,109.098717 138.052277,108.324364 
z"/>
<path fill="#E0F56A" opacity="1.000000" stroke="none" 
	d="
M212.157440,101.629089 
	C209.423157,102.006203 206.758774,102.007576 203.656830,102.012672 
	C203.175613,101.257477 203.131927,100.498558 203.144028,99.362839 
	C205.822998,98.988228 208.446167,98.990425 211.509003,98.991272 
	C212.041534,99.744392 212.134430,100.498878 212.157440,101.629089 
z"/>
<path fill="#EFE125" opacity="1.000000" stroke="none" 
	d="
M111.914757,124.593567 
	C108.974205,124.659828 106.118187,124.336533 102.844543,124.013611 
	C102.492805,123.248199 102.558685,122.482430 102.765305,121.356133 
	C105.701355,121.029510 108.496666,121.063408 111.678894,121.061958 
	C112.043625,122.085747 112.021461,123.144882 111.914757,124.593567 
z"/>
<path fill="#EEF996" opacity="1.000000" stroke="none" 
	d="
M178.992538,106.380264 
	C181.084488,106.006584 183.108566,106.004852 185.567169,106.004593 
	C185.467056,110.015060 182.325073,108.746544 179.533447,109.002975 
	C179.061935,108.252930 178.993301,107.502563 178.992538,106.380264 
z"/>
<path fill="#E4F08E" opacity="1.000000" stroke="none" 
	d="
M162.844574,117.772446 
	C162.584717,118.313820 162.178375,118.621628 161.503891,118.946671 
	C161.176300,118.526344 161.116882,118.088791 161.116943,117.323128 
	C161.683640,117.176315 162.190872,117.357605 162.844574,117.772446 
z"/>
<path fill="#DDEA98" opacity="1.000000" stroke="none" 
	d="
M147.239716,117.804161 
	C147.083725,117.559700 147.216095,117.359444 147.559952,117.103691 
	C147.902588,117.360031 147.821457,117.626755 147.239716,117.804161 
z"/>
<path fill="#E3E4F5" opacity="1.000000" stroke="none" 
	d="
M43.561615,125.156967 
	C43.081451,126.657516 43.044907,128.191650 42.282169,128.773010 
	C40.075512,130.454895 37.576767,131.753555 35.192673,133.202637 
	C34.172070,130.943848 32.285389,128.676971 32.306366,126.427895 
	C32.353935,121.328201 33.148491,116.202339 34.063065,111.164040 
	C34.337990,109.649490 36.010395,108.388611 37.042610,107.011528 
	C38.771572,108.356827 41.595879,109.426613 42.017002,111.100868 
	C43.126564,115.512161 43.192181,120.186035 43.561615,125.156967 
z"/>
<path fill="#EBF28F" opacity="1.000000" stroke="none" 
	d="
M148.064529,50.988701 
	C148.064529,52.462109 148.064529,53.935509 148.064529,56.047085 
	C152.725327,56.385986 157.238693,56.714165 161.952927,57.056953 
	C162.309448,55.014874 162.591461,53.399635 163.420898,51.393387 
	C166.703278,51.023670 169.438202,51.044971 172.173141,51.066273 
	C171.897354,55.407078 171.621567,59.747879 170.835846,64.463623 
	C167.424469,64.601326 164.523071,64.364098 161.621658,64.126862 
	C157.137680,64.029167 152.653717,63.931469 147.597885,63.622299 
	C144.029694,62.948513 141.033340,62.486206 138.037003,62.023899 
	C138.046387,60.609974 138.055756,59.196045 138.280853,57.284210 
	C138.679245,56.494568 138.616409,56.249588 138.308014,56.051361 
	C138.333023,55.187374 138.358017,54.323383 138.996399,53.207573 
	C141.740158,52.301933 143.870544,51.648117 146.344833,50.992126 
	C147.147339,50.989532 147.605927,50.989117 148.064529,50.988701 
z"/>
<path fill="#EBDE17" opacity="1.000000" stroke="none" 
	d="
M98.026718,73.679832 
	C95.309502,73.729164 92.592293,73.778488 89.334152,73.633972 
	C88.462471,73.273178 88.202980,73.358467 88.014755,73.696007 
	C87.271408,73.783188 86.528069,73.870369 85.192657,73.871422 
	C81.710320,73.849060 78.820053,73.912827 75.929779,73.976593 
	C76.521324,72.176697 77.112869,70.376801 78.344757,68.285461 
	C88.595779,67.988861 98.206467,67.983704 107.817154,67.978546 
	C108.187103,68.793495 108.557060,69.608444 108.782974,71.043015 
	C107.438957,72.699013 106.238976,73.735374 105.038994,74.771744 
	C104.984482,74.407776 104.929962,74.043800 104.875450,73.679832 
	C102.592537,73.679832 100.309631,73.679832 98.026718,73.679832 
z"/>
<path fill="#ECE229" opacity="1.000000" stroke="none" 
	d="
M199.024109,86.793472 
	C197.944962,86.848915 196.865799,86.904358 195.296631,86.743774 
	C194.480774,86.329628 194.216553,86.406624 194.013977,86.758728 
	C192.546097,85.184273 191.078232,83.609818 188.760986,81.124306 
	C194.031311,81.124306 197.694031,81.590469 201.166260,80.977516 
	C203.968170,80.482887 206.809555,78.794373 203.363388,74.678566 
	C205.525223,73.401855 207.897598,72.646156 210.269974,71.890457 
	C213.014832,76.005791 213.410858,79.988403 208.906189,83.850670 
	C207.509781,84.385895 206.807983,84.803833 206.106201,85.221771 
	C206.106201,85.221771 206.101334,85.126549 205.910797,85.153381 
	C205.404633,85.276596 205.170395,85.471016 205.017532,85.763474 
	C204.397629,85.922371 203.777710,86.081261 202.462189,86.149170 
	C200.852432,86.303284 199.938263,86.548378 199.024109,86.793472 
M203.420456,83.486061 
	C203.420456,83.486061 203.520355,83.429108 203.420456,83.486061 
z"/>
<path fill="#D7EB58" opacity="1.000000" stroke="none" 
	d="
M140.278107,34.043320 
	C140.278107,35.483997 140.278107,36.924675 140.278107,38.471642 
	C135.876694,38.471642 132.089096,38.471642 127.655289,38.629063 
	C124.142311,36.285480 121.062485,36.722679 117.912537,38.126881 
	C116.549103,38.006428 115.185661,37.885975 113.366676,37.420132 
	C112.264153,37.187904 111.617180,37.301067 110.970207,37.414230 
	C108.930214,36.874287 105.315628,39.291206 106.165215,34.237076 
	C117.959465,33.985634 129.118790,34.014477 140.278107,34.043320 
z"/>
<path fill="#E3BC26" opacity="1.000000" stroke="none" 
	d="
M140.413651,33.671658 
	C129.118790,34.014477 117.959465,33.985634 106.320862,33.934029 
	C105.841591,32.779865 105.841591,31.648458 105.841591,31.283245 
	C116.917114,31.283245 127.655289,31.244181 138.391541,31.369886 
	C139.118195,31.378395 139.830307,32.627747 140.413651,33.671658 
z"/>
<path fill="#E8DF2A" opacity="1.000000" stroke="none" 
	d="
M27.945993,76.004128 
	C27.832548,75.696724 27.719103,75.389320 27.718327,74.559807 
	C27.648617,73.709236 27.466236,73.380775 27.283854,73.052315 
	C26.897755,70.623810 26.511656,68.195305 26.500908,65.289597 
	C29.525625,64.220757 32.174992,63.629120 34.824360,63.037479 
	C35.283142,65.986176 35.741928,68.934868 36.089371,72.684082 
	C34.856697,79.284889 30.815422,75.776634 27.945993,76.004128 
z"/>
<path fill="#EAE028" opacity="1.000000" stroke="none" 
	d="
M137.935806,62.424561 
	C141.033340,62.486206 144.029694,62.948513 147.157257,63.702980 
	C147.079819,67.098877 146.871170,70.202621 146.027344,73.664429 
	C142.621475,74.010300 139.850769,73.998108 137.080063,73.985916 
	C137.331573,70.265686 137.583099,66.545456 137.935806,62.424561 
z"/>
<path fill="#E9DF27" opacity="1.000000" stroke="none" 
	d="
M60.373310,71.946098 
	C59.832375,68.252197 59.291439,64.558304 59.163086,60.370041 
	C62.153633,59.525410 64.731598,59.175148 67.309555,58.824883 
	C67.922218,62.598473 68.534882,66.372063 68.758034,70.543274 
	C66.052856,70.052704 63.746628,69.186012 63.809978,72.945282 
	C62.494122,72.562706 61.433716,72.254402 60.373310,71.946098 
z"/>
<path fill="#DAF160" opacity="1.000000" stroke="none" 
	d="
M186.343948,67.017723 
	C186.140762,61.746410 188.501358,59.030216 194.346939,57.974182 
	C197.703705,57.367760 201.085846,56.901688 204.856339,56.309662 
	C205.341843,58.064121 205.809998,59.755936 206.112076,60.847530 
	C201.559402,62.084858 197.388901,63.218323 192.775360,64.702927 
	C190.336212,65.708618 188.340088,66.363174 186.343948,67.017723 
z"/>
<path fill="#E4EE98" opacity="1.000000" stroke="none" 
	d="
M210.134781,71.548187 
	C207.897598,72.646156 205.525223,73.401855 203.041718,74.504837 
	C197.864502,74.665550 192.534698,75.690346 188.573395,71.331123 
	C191.757187,71.227516 193.184525,69.914566 193.035446,66.962471 
	C195.550293,67.355980 198.114944,67.556808 200.567581,68.190933 
	C203.758148,69.015846 206.859711,70.184937 210.134781,71.548187 
z"/>
<path fill="#E9E029" opacity="1.000000" stroke="none" 
	d="
M161.670013,64.526978 
	C164.523071,64.364098 167.424469,64.601326 170.700745,64.845612 
	C170.977936,67.637131 170.880280,70.421593 170.344360,73.829628 
	C166.967911,74.964409 164.029724,75.475616 161.091537,75.986824 
	C161.300476,72.300247 161.509415,68.613670 161.670013,64.526978 
z"/>
<path fill="#E9F395" opacity="1.000000" stroke="none" 
	d="
M79.194122,64.942093 
	C80.564049,61.106094 81.933968,57.270096 83.878082,53.313499 
	C86.857185,53.797031 89.262093,54.401165 91.608597,55.349800 
	C90.502327,58.511532 89.454468,61.328762 87.969437,64.106689 
	C84.752892,64.358955 81.973503,64.650528 79.194122,64.942093 
z"/>
<path fill="#E8DF2D" opacity="1.000000" stroke="none" 
	d="
M191.326859,39.176880 
	C193.000671,43.189785 194.674484,47.202694 196.613464,51.851322 
	C193.884201,52.482384 191.890900,52.943272 188.809723,53.655697 
	C188.133072,49.199516 187.506439,45.072701 187.217575,40.479191 
	C188.812515,39.733955 190.069687,39.455418 191.326859,39.176880 
z"/>
<path fill="#ECF290" opacity="1.000000" stroke="none" 
	d="
M67.326653,58.404629 
	C64.731598,59.175148 62.153633,59.525410 59.152328,59.931038 
	C58.153854,56.931297 57.578720,53.876186 57.290882,50.284805 
	C60.347515,49.499645 63.116856,49.250755 65.886192,49.001865 
	C66.372047,51.996033 66.857895,54.990204 67.326653,58.404629 
z"/>
<path fill="#D8EB5B" opacity="1.000000" stroke="none" 
	d="
M85.168289,49.017372 
	C86.205246,46.525780 85.672379,42.460838 90.110085,43.153858 
	C93.628632,43.703335 98.797256,40.394878 100.048386,47.636124 
	C95.070442,48.560200 90.119362,48.788784 85.168289,49.017372 
z"/>
<path fill="#EBE540" opacity="1.000000" stroke="none" 
	d="
M79.049606,65.239899 
	C81.973503,64.650528 84.752892,64.358955 87.882149,64.513199 
	C89.934471,67.828529 95.888596,67.826012 98.050804,64.842003 
	C101.042877,64.466225 103.625458,64.203468 106.208038,63.940720 
	C106.739487,65.075951 107.270935,66.211189 107.809769,67.662491 
	C98.206467,67.983704 88.595779,67.988861 78.552124,67.993988 
	C78.381134,67.175201 78.643112,66.356461 79.049606,65.239899 
z"/>
<path fill="#E3F57C" opacity="1.000000" stroke="none" 
	d="
M84.991631,49.318237 
	C90.119362,48.788784 95.070442,48.560200 100.071877,48.018257 
	C100.759369,49.248425 101.396500,50.791946 101.726883,52.889755 
	C99.248917,54.357555 97.077690,55.271069 94.627090,56.016541 
	C93.917419,55.076893 93.487122,54.305290 93.056824,53.533684 
	C92.593552,54.024223 92.130280,54.514763 91.667007,55.005299 
	C89.262093,54.401165 86.857185,53.797031 84.122406,53.059921 
	C84.133354,51.824329 84.474159,50.721714 84.991631,49.318237 
z"/>
<path fill="#EDF394" opacity="1.000000" stroke="none" 
	d="
M34.859703,62.646301 
	C32.174992,63.629120 29.525625,64.220757 26.522346,64.880585 
	C25.713446,61.926987 25.258453,58.905205 25.247952,55.440189 
	C28.167860,54.678776 30.643276,54.360600 33.118690,54.042419 
	C33.710812,56.779984 34.302929,59.517555 34.859703,62.646301 
z"/>
<path fill="#EFF497" opacity="1.000000" stroke="none" 
	d="
M94.906471,56.184586 
	C97.077690,55.271069 99.248917,54.357555 101.684166,53.250576 
	C103.344490,56.434288 104.740791,59.811462 106.172569,63.564678 
	C103.625458,64.203468 101.042877,64.466225 97.831741,64.588455 
	C96.437622,61.693481 95.672043,58.939037 94.906471,56.184586 
z"/>
<path fill="#EDE01D" opacity="1.000000" stroke="none" 
	d="
M117.082230,62.006683 
	C117.081108,59.961880 117.079987,57.917076 117.574852,55.434555 
	C120.972549,55.636745 123.874268,56.276649 126.775978,56.916557 
	C126.705505,58.720612 126.635033,60.524662 125.964310,62.667694 
	C122.603447,62.673340 119.842842,62.340012 117.082230,62.006683 
z"/>
<path fill="#E1DC27" opacity="1.000000" stroke="none" 
	d="
M53.001083,61.056358 
	C51.785046,64.385933 53.522808,69.429962 47.554173,69.972694 
	C42.850117,70.400452 43.017849,66.006866 41.300236,63.404678 
	C45.387058,62.387615 49.194073,61.721989 53.001083,61.056358 
z"/>
<path fill="#DBF166" opacity="1.000000" stroke="none" 
	d="
M148.218506,50.619308 
	C147.605927,50.989117 147.147339,50.989532 146.148468,50.753571 
	C143.417877,50.004665 141.227554,49.492142 139.037247,48.979622 
	C139.037247,46.866718 139.037247,44.753815 139.037247,42.470406 
	C142.512054,42.722847 145.547470,42.943363 149.007462,43.194725 
	C148.776398,45.762039 148.574448,48.005978 148.218506,50.619308 
z"/>
<path fill="#D8EC61" opacity="1.000000" stroke="none" 
	d="
M172.352982,50.713623 
	C169.438202,51.044971 166.703278,51.023670 163.517792,50.997753 
	C163.067245,48.567036 163.067245,46.140942 163.067245,43.651283 
	C166.473755,43.815918 169.377563,43.956257 172.897537,44.126373 
	C172.770157,46.303658 172.651489,48.332317 172.352982,50.713623 
z"/>
<path fill="#D7F063" opacity="1.000000" stroke="none" 
	d="
M50.881454,44.934891 
	C51.685108,42.908798 52.021107,39.615856 53.386608,39.111782 
	C56.545071,37.945843 60.199207,38.010788 63.660793,37.927242 
	C64.068245,37.917408 64.528648,40.101128 64.524048,41.695141 
	C59.682877,43.059830 55.282166,43.997360 50.881454,44.934891 
z"/>
<path fill="#DFDB36" opacity="1.000000" stroke="none" 
	d="
M75.680496,74.216972 
	C78.820053,73.912827 81.710320,73.849060 84.828125,73.958008 
	C82.993500,81.202263 82.993500,81.202263 73.312935,80.418015 
	C74.057388,78.323181 74.744308,76.390266 75.680496,74.216972 
z"/>
<path fill="#E8F197" opacity="1.000000" stroke="none" 
	d="
M117.364632,51.977600 
	C117.410957,50.188725 117.457275,48.399849 118.125427,46.295570 
	C121.526039,45.650166 124.304817,45.320171 127.083603,44.990173 
	C127.065819,47.331100 127.048027,49.672024 126.594589,52.296272 
	C123.227493,52.378929 120.296066,52.178265 117.364632,51.977600 
z"/>
<path fill="#E5F679" opacity="1.000000" stroke="none" 
	d="
M50.658226,45.179298 
	C55.282166,43.997360 59.682877,43.059830 64.481537,42.066551 
	C65.072617,43.052334 65.265747,44.093857 65.037369,45.553543 
	C59.752308,46.650169 54.888752,47.328632 50.025200,48.007095 
	C50.161800,47.145966 50.298401,46.284832 50.658226,45.179298 
z"/>
<path fill="#E6F19C" opacity="1.000000" stroke="none" 
	d="
M191.646790,38.949528 
	C190.069687,39.455418 188.812515,39.733955 187.176483,40.120255 
	C185.637756,37.876408 184.477875,35.524799 182.994110,32.516510 
	C185.907135,31.853998 187.905197,31.399578 190.516479,30.805695 
	C191.045105,33.691383 191.505920,36.206779 191.646790,38.949528 
z"/>
<path fill="#E9EA63" opacity="1.000000" stroke="none" 
	d="
M53.186062,60.788879 
	C49.194073,61.721989 45.387058,62.387615 41.211342,63.056282 
	C40.253265,62.245403 39.663895,61.431496 39.350784,60.287361 
	C41.754864,59.624702 43.882679,59.292274 46.010494,58.959846 
	C46.010494,58.959846 46.450382,59.024025 46.986324,58.890892 
	C49.642353,58.515842 51.762436,58.273926 53.882523,58.032009 
	C53.712025,58.861805 53.541534,59.691601 53.186062,60.788879 
z"/>
<path fill="#D9ED56" opacity="1.000000" stroke="none" 
	d="
M23.262280,45.988621 
	C22.465033,43.454956 22.897230,41.812614 26.044544,41.948128 
	C29.302977,42.088421 32.565331,42.137592 35.631622,42.824322 
	C31.378942,44.277554 27.320612,45.133087 23.262280,45.988621 
z"/>
<path fill="#E5F58D" opacity="1.000000" stroke="none" 
	d="
M33.433994,54.015175 
	C30.643276,54.360600 28.167860,54.678776 25.276020,55.015888 
	C24.613945,54.235123 24.368294,53.435425 24.568590,52.302715 
	C29.058939,51.367874 33.095066,50.688133 37.157558,50.256611 
	C37.704075,50.198559 38.383434,51.391197 38.868584,52.307892 
	C37.801605,53.421322 36.867317,54.231541 35.933029,55.041759 
	C35.933029,55.041759 35.996593,55.010468 35.890194,54.811485 
	C35.595741,54.321228 35.338890,54.116093 35.013237,53.997097 
	C34.591923,53.994041 34.170612,53.990986 33.433994,54.015175 
z"/>
<path fill="#E1F28E" opacity="1.000000" stroke="none" 
	d="
M49.840401,48.302650 
	C54.888752,47.328632 59.752308,46.650169 65.059959,45.950806 
	C65.661736,46.743797 65.819412,47.557690 65.931641,48.686722 
	C63.116856,49.250755 60.347515,49.499645 57.271034,49.883598 
	C56.963890,50.018665 56.513504,49.911407 56.025742,50.139874 
	C55.400318,50.965782 55.262665,51.563225 55.125008,52.160667 
	C55.125008,52.160667 55.134071,52.057312 54.795731,52.023773 
	C52.586281,51.981308 50.715168,51.972378 48.844063,51.963444 
	C49.114574,50.841698 49.385090,49.719952 49.840401,48.302650 
z"/>
<path fill="#EAF3A0" opacity="1.000000" stroke="none" 
	d="
M35.988449,55.368237 
	C36.867317,54.231541 37.801605,53.421322 39.182590,52.307678 
	C40.047985,52.005432 40.466682,52.006607 40.885380,52.007782 
	C42.515800,54.114426 44.146221,56.221073 45.893570,58.643784 
	C43.882679,59.292274 41.754864,59.624702 39.291122,59.986118 
	C37.984753,58.574974 37.014313,57.134846 35.988449,55.368237 
z"/>
<path fill="#EBF39E" opacity="1.000000" stroke="none" 
	d="
M48.582390,52.214764 
	C50.715168,51.972378 52.586281,51.981308 54.828728,52.063805 
	C54.869637,53.871479 54.539211,55.605587 54.045654,57.685852 
	C51.762436,58.273926 49.642353,58.515842 47.206337,58.859241 
	C47.367176,56.795845 47.843948,54.630962 48.582390,52.214764 
z"/>
<path fill="#E6F67C" opacity="1.000000" stroke="none" 
	d="
M40.880177,51.679253 
	C40.466682,52.006607 40.047985,52.005432 39.315285,52.004471 
	C38.383434,51.391197 37.704075,50.198559 37.157558,50.256611 
	C33.095066,50.688133 29.058939,51.367874 24.610664,51.982063 
	C24.095499,51.246159 23.984209,50.497894 24.346802,49.374092 
	C29.352461,48.281296 33.884235,47.564034 38.416012,46.846771 
	C39.235664,48.348087 40.055321,49.849407 40.880177,51.679253 
z"/>
<path fill="#F1E537" opacity="1.000000" stroke="none" 
	d="
M116.978271,62.443596 
	C119.842842,62.340012 122.603447,62.673340 125.803635,63.016098 
	C126.253677,64.090492 126.264137,65.155457 125.951775,66.707024 
	C125.345604,67.381393 125.134941,67.630623 124.996979,67.941299 
	C122.426651,67.941299 119.856331,67.941299 116.874313,67.941299 
	C116.874313,66.005844 116.874313,64.443176 116.978271,62.443596 
z"/>
<path fill="#EAE13E" opacity="1.000000" stroke="none" 
	d="
M160.991974,76.327591 
	C164.029724,75.475616 166.967911,74.964409 170.214554,74.271820 
	C170.397705,76.007683 170.272415,77.924942 170.065460,81.091614 
	C167.071350,78.216003 161.684875,83.982819 160.991974,76.327591 
z"/>
<path fill="#E9E13F" opacity="1.000000" stroke="none" 
	d="
M136.978271,74.352936 
	C139.850769,73.998108 142.621475,74.010300 145.867249,74.034271 
	C146.238388,75.641495 146.134476,77.236938 146.026688,78.891937 
	C142.676498,78.891937 139.757889,78.891937 136.583176,78.891937 
	C136.695526,77.293922 136.785995,76.006943 136.978271,74.352936 
z"/>
<path fill="#DFDB36" opacity="1.000000" stroke="none" 
	d="
M98.373352,73.777863 
	C100.309631,73.679832 102.592537,73.679832 104.875450,73.679832 
	C104.929962,74.043800 104.984482,74.407776 105.038994,74.771744 
	C106.238976,73.735374 107.438957,72.699013 108.801544,71.379021 
	C109.784065,73.116669 110.603981,75.137939 111.069794,77.556839 
	C107.793106,77.645515 104.870514,77.336563 101.947922,77.027618 
	C100.871941,75.977043 99.795967,74.926460 98.373352,73.777863 
z"/>
<path fill="#DEF46C" opacity="1.000000" stroke="none" 
	d="
M38.316051,46.530575 
	C33.884235,47.564034 29.352461,48.281296 24.388329,48.996475 
	C23.707367,48.201702 23.458765,47.409008 23.236221,46.302467 
	C27.320612,45.133087 31.378942,44.277554 35.734474,43.206047 
	C36.759811,44.064838 37.487953,45.139610 38.316051,46.530575 
z"/>
<path fill="#D0EB6C" opacity="1.000000" stroke="none" 
	d="
M181.740417,25.563351 
	C183.588837,24.226873 185.515030,23.233156 187.994293,21.954115 
	C188.636307,24.553816 189.011276,26.072161 189.489197,28.007444 
	C186.392365,28.156994 182.885605,32.047894 181.740417,25.563351 
z"/>
<path fill="#E1DD41" opacity="1.000000" stroke="none" 
	d="
M60.323395,72.299316 
	C61.433716,72.254402 62.494122,72.562706 63.809978,72.945282 
	C63.746628,69.186012 66.052856,70.052704 68.738701,70.971809 
	C68.800713,72.273048 68.492531,73.543381 68.184357,74.813713 
	C65.633545,73.778000 61.551514,78.347191 60.323395,72.299316 
z"/>
<path fill="#D6D84A" opacity="1.000000" stroke="none" 
	d="
M101.945923,77.423347 
	C104.870514,77.336563 107.793106,77.645515 111.187263,77.924469 
	C111.839577,78.656227 112.432449,79.779510 112.133415,80.120399 
	C110.343765,82.160553 103.421646,80.522888 101.945923,77.423347 
z"/>
<path fill="#DBDE4B" opacity="1.000000" stroke="none" 
	d="
M117.267227,52.349640 
	C120.296066,52.178265 123.227493,52.378929 126.519257,52.727589 
	C126.908768,53.961651 126.937958,55.047714 126.871559,56.525169 
	C123.874268,56.276649 120.972549,55.636745 117.646996,55.001671 
	C117.205376,54.244896 117.187599,53.483288 117.267227,52.349640 
z"/>
<path fill="#D1EC71" opacity="1.000000" stroke="none" 
	d="
M117.908836,38.486576 
	C121.062485,36.722679 124.142311,36.285480 127.326080,38.857956 
	C127.659760,39.393063 127.676445,39.856701 127.291725,40.602287 
	C123.933853,40.874771 120.946648,38.329201 118.022568,40.991726 
	C117.983429,40.276573 117.944283,39.561424 117.908836,38.486576 
z"/>
<path fill="#DBF084" opacity="1.000000" stroke="none" 
	d="
M117.942810,41.324951 
	C120.946648,38.329201 123.933853,40.874771 127.173309,40.930473 
	C127.470421,41.824329 127.484550,42.671955 126.946671,43.626667 
	C123.600151,43.493057 120.805641,43.252365 118.011139,43.011669 
	C117.961777,42.560505 117.912415,42.109337 117.942810,41.324951 
z"/>
<path fill="#E6F58E" opacity="1.000000" stroke="none" 
	d="
M193.023804,66.633896 
	C193.184525,69.914566 191.757187,71.227516 188.455063,70.993332 
	C187.488998,69.879753 186.910904,68.767349 186.338379,67.336334 
	C188.340088,66.363174 190.336212,65.708618 192.584381,65.029114 
	C192.894989,65.437881 192.953583,65.871597 193.023804,66.633896 
z"/>
<path fill="#E3DD3A" opacity="1.000000" stroke="none" 
	d="
M27.915085,76.444290 
	C30.815422,75.776634 34.856697,79.284889 36.051849,73.094803 
	C36.491268,74.399208 36.856865,76.093399 37.397148,78.597076 
	C33.801788,77.568733 30.293743,82.130890 27.915085,76.444290 
z"/>
<path fill="#EDF892" opacity="1.000000" stroke="none" 
	d="
M117.919037,43.371853 
	C120.805641,43.252365 123.600151,43.493057 126.775574,43.899025 
	C127.156494,44.064297 127.247009,44.537262 127.165306,44.763718 
	C124.304817,45.320171 121.526039,45.650166 118.305939,45.964951 
	C117.852051,45.210503 117.839493,44.471268 117.919037,43.371853 
z"/>
<path fill="#E6F48B" opacity="1.000000" stroke="none" 
	d="
M138.933655,49.362331 
	C141.227554,49.492142 143.417877,50.004665 145.804565,50.755745 
	C143.870544,51.648117 141.740158,52.301933 139.166183,52.928131 
	C138.758423,51.848690 138.794235,50.796864 138.933655,49.362331 
z"/>
<path fill="#D1EC71" opacity="1.000000" stroke="none" 
	d="
M111.300720,37.540352 
	C111.617180,37.301067 112.264153,37.187904 112.970016,37.312813 
	C112.563026,37.589417 112.097130,37.627945 111.300720,37.540352 
z"/>
<path fill="#E1DC36" opacity="1.000000" stroke="none" 
	d="
M199.384491,86.858078 
	C199.938263,86.548378 200.852432,86.303284 202.143188,86.109634 
	C201.594803,86.414948 200.669846,86.668816 199.384491,86.858078 
z"/>
<path fill="#E1DC36" opacity="1.000000" stroke="none" 
	d="
M206.425598,85.201294 
	C206.807983,84.803833 207.509781,84.385895 208.546539,83.962555 
	C208.169357,84.365028 207.457184,84.772926 206.425598,85.201294 
z"/>
<path fill="#EBF39E" opacity="1.000000" stroke="none" 
	d="
M55.394867,51.997452 
	C55.262665,51.563225 55.400318,50.965782 55.800644,50.193878 
	C55.930447,50.624359 55.797588,51.229298 55.394867,51.997452 
z"/>
<path fill="#E1DC36" opacity="1.000000" stroke="none" 
	d="
M194.254669,86.833160 
	C194.216553,86.406624 194.480774,86.329628 194.897400,86.665268 
	C194.823898,86.837715 194.659622,86.872658 194.254669,86.833160 
z"/>
<path fill="#E1DC36" opacity="1.000000" stroke="none" 
	d="
M205.263611,85.792648 
	C205.170395,85.471016 205.404633,85.276596 205.954422,85.172592 
	C206.101700,85.528023 205.875381,85.746971 205.263611,85.792648 
z"/>
<path fill="#DFDB36" opacity="1.000000" stroke="none" 
	d="
M88.254913,73.773254 
	C88.202980,73.358467 88.462471,73.273178 88.885162,73.570793 
	C88.816414,73.751137 88.655739,73.800819 88.254913,73.773254 
z"/>
<path fill="#E3DD3A" opacity="1.000000" stroke="none" 
	d="
M27.262569,73.344864 
	C27.466236,73.380775 27.648617,73.709236 27.816971,74.329765 
	C27.615725,74.293694 27.428505,73.965546 27.262569,73.344864 
z"/>
<path fill="#DBDE4B" opacity="1.000000" stroke="none" 
	d="
M125.299568,67.967491 
	C125.134941,67.630623 125.345604,67.381393 125.857635,67.098953 
	C125.924927,67.334091 125.763542,67.663887 125.299568,67.967491 
z"/>
<path fill="#E6F48B" opacity="1.000000" stroke="none" 
	d="
M138.236969,56.272385 
	C138.616409,56.249588 138.679245,56.494568 138.371552,56.868492 
	C138.246552,56.950687 138.165909,56.493412 138.236969,56.272385 
z"/>
<path fill="#EAF3A0" opacity="1.000000" stroke="none" 
	d="
M35.111519,54.226830 
	C35.338890,54.116093 35.595741,54.321228 35.877831,54.844681 
	C35.717842,54.870094 35.463821,54.663330 35.111519,54.226830 
z"/>
<path fill="#E1DC36" opacity="1.000000" stroke="none" 
	d="
M203.470398,83.457581 
	C203.520355,83.429108 203.420456,83.486061 203.470398,83.457581 
z"/>
<path fill="#248CC8" opacity="1.000000" stroke="none" 
	d="
M94.627090,56.016544 
	C95.672043,58.939037 96.437622,61.693481 97.422256,64.701477 
	C95.888596,67.826012 89.934471,67.828529 88.319321,64.552498 
	C89.454468,61.328762 90.502327,58.511532 91.608597,55.349800 
	C92.130280,54.514763 92.593552,54.024223 93.056824,53.533684 
	C93.487122,54.305290 93.917419,55.076893 94.627090,56.016544 
z"/>
</svg>